<svg width="24" height="24" viewBox="0 0 24 24" fill="none" xmlns="http://www.w3.org/2000/svg">
<path fill-rule="evenodd" clip-rule="evenodd" d="M15.9214 4.41882C13.3283 3.98409 10.6662 3.98409 8.07305 4.41882C7.58505 4.50063 7.19746 4.87556 7.10018 5.3585C6.2151 9.75248 6.16681 14.274 6.95784 18.6859L7.12139 19.598L10.7919 16.111C11.4674 15.4694 12.5271 15.4694 13.2025 16.111L16.8731 19.598L17.0366 18.6859C17.8276 14.274 17.7793 9.75248 16.8943 5.3585C16.797 4.87556 16.4094 4.50063 15.9214 4.41882ZM7.82504 2.93947C10.5824 2.47721 13.4121 2.47721 16.1694 2.93947C17.2686 3.12375 18.1442 3.96756 18.3647 5.0623C19.2871 9.64121 19.3374 14.353 18.5131 18.9506L18.2916 20.1859C18.1057 21.2227 16.8416 21.6372 16.0779 20.9116L12.1694 17.1985C12.0729 17.1069 11.9215 17.1069 11.825 17.1985L7.91651 20.9116C7.15281 21.6372 5.88877 21.2227 5.70287 20.1859L5.48138 18.9506C4.65706 14.353 4.70739 9.64121 5.62972 5.0623C5.85023 3.96756 6.72582 3.12375 7.82504 2.93947Z" fill="black"/>
</svg>
