<svg width="26" height="26" viewBox="0 0 26 26" fill="none" xmlns="http://www.w3.org/2000/svg">
<path d="M8.54506 5.99598C8.13595 5.99621 7.73527 6.11233 7.38944 6.33091C7.0436 6.54948 6.76677 6.86155 6.591 7.23098L4.61662 11.3707C4.30787 12.0207 4.381 12.7844 4.80756 13.3613L11.8113 22.8716C11.9489 23.0579 12.1282 23.2093 12.335 23.3137C12.5417 23.418 12.77 23.4724 13.0016 23.4724C13.2332 23.4724 13.4615 23.418 13.6683 23.3137C13.875 23.2093 14.0544 23.0579 14.1919 22.8716L21.1957 13.3613C21.6222 12.7844 21.6954 12.0207 21.3866 11.3707L19.4122 7.23098C19.2356 6.86221 18.9586 6.55073 18.6129 6.33228C18.2673 6.11383 17.8671 5.99727 17.4582 5.99598H8.54506ZM17.8888 6.88567L15.7316 11.4154L13.6354 6.80848H17.4622C17.6126 6.80848 17.7547 6.84098 17.8929 6.88567H17.8888ZM10.8079 12.7844H15.1954L13.0016 21.0882L10.8079 12.7844ZM10.9135 11.9719L13.0016 7.38536L15.0897 11.9719H10.9094H10.9135ZM12.3719 6.80848L10.2757 11.4154L8.1185 6.88567C8.25662 6.83692 8.39881 6.80848 8.54912 6.80848H12.376H12.3719ZM7.32631 7.58035C7.35881 7.50723 7.41162 7.45036 7.45631 7.38536L9.64193 11.9719H5.27068C5.291 11.8866 5.31131 11.8013 5.35193 11.72L7.32631 7.58035ZM5.46568 12.8779C5.44537 12.8494 5.43318 12.8129 5.41287 12.7804H9.971L12.5182 22.4288C12.376 22.2785 12.4979 22.4288 5.46162 12.8779H5.46568ZM13.4932 22.4288L16.0404 12.7804H20.5985C20.5782 12.8129 20.5701 12.8454 20.5457 12.8779C13.5297 22.4044 13.6313 22.2785 13.4891 22.4288H13.4932ZM20.6594 11.716C20.696 11.7972 20.7204 11.8825 20.7407 11.9679H16.3735L18.5591 7.38129C18.6038 7.44629 18.6566 7.50317 18.6891 7.57629L20.6635 11.716H20.6594ZM2.60162 20.9338C2.29693 21.0272 2.08975 21.3075 2.09381 21.6244C2.09787 21.9413 2.301 22.2216 2.60568 22.315C3.34912 22.5425 3.926 23.1194 4.1535 23.8629C4.24693 24.1675 4.52318 24.3747 4.84412 24.3747C5.16506 24.3747 5.44131 24.1716 5.53475 23.8629C5.6459 23.4976 5.84524 23.1654 6.11518 22.8955C6.38512 22.6255 6.71735 22.4262 7.08256 22.315C7.23088 22.2704 7.36083 22.1791 7.45306 22.0546C7.54529 21.9302 7.59488 21.7793 7.59443 21.6244C7.59443 21.3035 7.39131 21.0272 7.08256 20.9297C6.71735 20.8186 6.38512 20.6192 6.11518 20.3493C5.84524 20.0794 5.6459 19.7471 5.53475 19.3819C5.42912 19.0285 5.07568 18.8132 4.71412 18.8822C4.446 18.931 4.23068 19.1219 4.1535 19.3819C4.04234 19.7471 3.843 20.0794 3.57306 20.3493C3.30313 20.6192 2.97089 20.8186 2.60568 20.9297L2.60162 20.9338ZM4.84006 19.8694C4.99808 20.2663 5.23514 20.6269 5.53683 20.9293C5.83853 21.2316 6.19857 21.4695 6.59506 21.6285C6.1982 21.7865 5.83762 22.0236 5.53522 22.3253C5.23282 22.627 4.99493 22.987 4.836 23.3835C4.67912 22.9864 4.44242 22.6258 4.14054 22.3239C3.83867 22.0221 3.47804 21.7854 3.081 21.6285C3.47822 21.4708 3.8389 21.2333 4.14075 20.9308C4.44261 20.6282 4.67923 20.267 4.836 19.8694H4.84006ZM22.6866 16.5991C22.4307 16.5097 22.1504 16.5666 21.9513 16.7535C21.6724 17.0134 21.3338 17.2008 20.9655 17.2993C20.5971 17.3978 20.2102 17.4042 19.8388 17.3182C19.526 17.245 19.2091 17.3832 19.0507 17.6635C18.8922 17.9397 18.9329 18.285 19.1482 18.5166C19.4081 18.7955 19.5956 19.1341 19.694 19.5024C19.7925 19.8708 19.799 20.2577 19.7129 20.6291C19.6397 20.9419 19.7779 21.2588 20.0541 21.4172C20.1679 21.4822 20.2938 21.5147 20.4157 21.5147C20.5944 21.5147 20.7691 21.4497 20.9072 21.3197C21.1854 21.0585 21.5239 20.8703 21.8925 20.7717C22.2611 20.6732 22.6484 20.6675 23.0197 20.755C23.3285 20.8282 23.6494 20.69 23.8079 20.4138C23.9663 20.1375 23.9297 19.7922 23.7104 19.5607C23.4496 19.2822 23.2616 18.9437 23.1631 18.5752C23.0646 18.2067 23.0586 17.8196 23.1457 17.4482C23.2269 17.0907 23.0279 16.7291 22.6826 16.6032L22.6866 16.5991ZM20.5538 20.556C20.6797 19.7029 20.4482 18.8335 19.9119 18.155C20.7651 18.281 21.6344 18.0494 22.3129 17.5132C22.1869 18.3704 22.4185 19.2357 22.9547 19.9141C22.0976 19.7882 21.2322 20.0197 20.5538 20.556ZM6.87537 2.28286C6.84287 1.91723 6.53818 1.63286 6.17256 1.62473C5.90443 1.61254 5.65256 1.75879 5.5185 1.99848C5.33436 2.33246 5.07096 2.61606 4.75147 2.82433C4.43198 3.0326 4.0662 3.15916 3.68631 3.19286C3.53228 3.20693 3.38682 3.27001 3.2713 3.37285C3.15577 3.47569 3.07626 3.61286 3.04444 3.76422C3.01262 3.91558 3.03018 4.07316 3.09452 4.21381C3.15886 4.35446 3.26661 4.47077 3.40193 4.54567C4.08037 4.91942 4.52725 5.60598 4.59631 6.37786C4.62475 6.69473 4.85631 6.95473 5.16912 7.01973C5.32031 7.05255 5.47806 7.03545 5.61871 6.97098C5.75935 6.90652 5.87529 6.79818 5.94912 6.66223C6.13326 6.32825 6.39666 6.04465 6.71615 5.83638C7.03564 5.62811 7.40142 5.50155 7.78131 5.46786C8.09818 5.43942 8.35818 5.21192 8.42318 4.89911C8.48818 4.58629 8.346 4.27348 8.06568 4.11504C7.7317 3.93091 7.4481 3.6675 7.23983 3.34801C7.03156 3.02852 6.90501 2.66274 6.87131 2.28286H6.87537ZM5.37631 6.05286C5.30431 5.63182 5.14675 5.23002 4.91337 4.87227C4.68 4.51452 4.37575 4.20841 4.01943 3.97286C4.87256 3.82661 5.62412 3.33504 6.09943 2.61598C6.24568 3.46911 6.73725 4.22067 7.45631 4.69598C6.60318 4.84223 5.85162 5.33379 5.37631 6.05286ZM22.0366 4.51723C21.7859 4.44332 21.5571 4.30916 21.3701 4.12646C21.1832 3.94376 21.0438 3.71807 20.9641 3.46911C20.9177 3.32003 20.8177 3.19347 20.6834 3.11392C20.549 3.03437 20.3899 3.00749 20.2369 3.03848C20.0013 3.08317 19.8144 3.25379 19.7454 3.48536C19.6723 3.73586 19.5389 3.96463 19.3569 4.15161C19.1749 4.33859 18.9498 4.47808 18.7013 4.55786C18.4332 4.64317 18.2544 4.89098 18.2585 5.17536C18.2585 5.45567 18.4454 5.69942 18.7176 5.78067C19.2294 5.93098 19.6276 6.32098 19.7901 6.82879C19.8754 7.09285 20.1191 7.2716 20.3954 7.2716H20.4035C20.6838 7.2716 20.9276 7.08473 21.0088 6.81254C21.0821 6.56148 21.216 6.33232 21.3988 6.14528C21.5816 5.95823 21.8076 5.81906 22.0569 5.74004C22.3251 5.65473 22.5038 5.40692 22.4997 5.12661C22.4957 4.84629 22.3129 4.60254 22.0407 4.52129L22.0366 4.51723ZM20.3872 6.17067C20.1546 5.73469 19.7927 5.38135 19.3513 5.15911C19.7864 4.92527 20.1395 4.56373 20.3629 4.12317C20.5956 4.55915 20.9574 4.91248 21.3988 5.13473C20.9628 5.36742 20.6095 5.72927 20.3872 6.17067Z" fill="black"/>
</svg>
