<svg width="25" height="25" viewBox="0 0 25 25" fill="none" xmlns="http://www.w3.org/2000/svg">
<path d="M8.98026 10.5756C9.40538 10.5756 9.75 10.9158 9.75 11.3355V16.4015C9.75 16.8212 9.40538 17.1614 8.98026 17.1614C8.55515 17.1614 8.21053 16.8212 8.21053 16.4015V11.3355C8.21053 10.9158 8.55515 10.5756 8.98026 10.5756Z" fill="black"/>
<path d="M8.98026 8.80249C9.54708 8.80249 10.0066 8.34887 10.0066 7.78929C10.0066 7.22971 9.54708 6.77608 8.98026 6.77608C8.41344 6.77608 7.95395 7.22971 7.95395 7.78929C7.95395 8.34887 8.41344 8.80249 8.98026 8.80249Z" fill="black"/>
<path fill-rule="evenodd" clip-rule="evenodd" d="M0 11.8421C0 6.9458 4.0206 2.97656 8.98026 2.97656C13.9399 2.97656 17.9605 6.9458 17.9605 11.8421C17.9605 16.7384 13.9399 20.7077 8.98026 20.7077C4.0206 20.7077 0 16.7384 0 11.8421ZM8.98026 4.49637C4.87083 4.49637 1.53947 7.78517 1.53947 11.8421C1.53947 15.899 4.87083 19.1878 8.98026 19.1878C13.0897 19.1878 16.4211 15.899 16.4211 11.8421C16.4211 7.78517 13.0897 4.49637 8.98026 4.49637Z" fill="black"/>
</svg>
