<svg width="24" height="24" viewBox="0 0 24 24" fill="none" xmlns="http://www.w3.org/2000/svg">
<g clip-path="url(#clip0_898_29864)">
<path d="M7.52367 3.75H16.4768C16.57 3.75 16.6595 3.71296 16.7254 3.64703C16.7913 3.5811 16.8284 3.49168 16.8284 3.39844C16.8284 3.3052 16.7913 3.21578 16.7254 3.14985C16.6595 3.08391 16.57 3.04688 16.4768 3.04688H7.52367C7.43043 3.04688 7.34101 3.08391 7.27508 3.14985C7.20915 3.21578 7.17211 3.3052 7.17211 3.39844C7.17211 3.49168 7.20915 3.5811 7.27508 3.64703C7.34101 3.71296 7.43043 3.75 7.52367 3.75ZM7.52367 7.96875H16.4768C16.57 7.96875 16.6595 7.93171 16.7254 7.86578C16.7913 7.79985 16.8284 7.71043 16.8284 7.61719C16.8284 7.52395 16.7913 7.43453 16.7254 7.3686C16.6595 7.30266 16.57 7.26562 16.4768 7.26562H7.52367C7.43043 7.26562 7.34101 7.30266 7.27508 7.3686C7.20915 7.43453 7.17211 7.52395 7.17211 7.61719C7.17211 7.71043 7.20915 7.79985 7.27508 7.86578C7.34101 7.93171 7.43043 7.96875 7.52367 7.96875ZM7.52367 5.85938H16.4768C16.57 5.85938 16.6595 5.82234 16.7254 5.7564C16.7913 5.69047 16.8284 5.60105 16.8284 5.50781C16.8284 5.41457 16.7913 5.32515 16.7254 5.25922C16.6595 5.19329 16.57 5.15625 16.4768 5.15625H7.52367C7.43043 5.15625 7.34101 5.19329 7.27508 5.25922C7.20915 5.32515 7.17211 5.41457 7.17211 5.50781C7.17211 5.60105 7.20915 5.69047 7.27508 5.7564C7.34101 5.82234 7.43043 5.85938 7.52367 5.85938ZM23.6913 4.52873L23.1942 4.03158C22.9964 3.83379 22.7281 3.72268 22.4484 3.72268C22.1687 3.72268 21.9004 3.83379 21.7026 4.03158L20.0627 5.67141V1.75781C20.0622 1.29177 19.8768 0.844968 19.5473 0.515427C19.2178 0.185886 18.771 0.000521091 18.3049 0L5.69555 0C5.22951 0.000521091 4.7827 0.185886 4.45316 0.515427C4.12362 0.844968 3.93826 1.29177 3.93773 1.75781V20.0156H2.03906C1.94582 20.0156 1.8564 20.0527 1.79047 20.1186C1.72454 20.1845 1.6875 20.2739 1.6875 20.3672V22.2422C1.68802 22.7082 1.87339 23.155 2.20293 23.4846C2.53247 23.8141 2.97927 23.9995 3.44531 24H18.3516C18.3643 24 18.377 23.9992 18.3897 23.9978C18.8405 23.9756 19.2655 23.7809 19.5769 23.4542C19.8883 23.1274 20.0622 22.6935 20.0627 22.2422V9.64898L23.6913 6.02039C23.8888 5.82242 23.9997 5.5542 23.9997 5.27456C23.9997 4.99492 23.8888 4.7267 23.6913 4.52873ZM3.44531 23.2969C3.16569 23.2966 2.89761 23.1853 2.69989 22.9876C2.50217 22.7899 2.39095 22.5218 2.39062 22.2422V20.7188H16.4062V22.1719C16.406 22.5799 16.5429 22.9761 16.795 23.2969H3.44531ZM19.3596 20.3626C19.3596 20.3642 19.3594 20.3656 19.3594 20.3672V22.1719C19.3594 22.4702 19.2408 22.7564 19.0299 22.9674C18.8189 23.1783 18.5327 23.2969 18.2344 23.2969C17.936 23.2969 17.6499 23.1783 17.4389 22.9674C17.2279 22.7564 17.1094 22.4702 17.1094 22.1719V20.3672C17.1094 20.2739 17.0723 20.1845 17.0064 20.1186C16.9405 20.0527 16.8511 20.0156 16.7578 20.0156C16.7499 20.0156 16.7422 20.0163 16.7344 20.0168C16.7266 20.0163 16.7189 20.0156 16.7109 20.0156H4.64086V1.75781C4.64118 1.47819 4.7524 1.21011 4.95013 1.01239C5.14785 0.81467 5.41593 0.703448 5.69555 0.703125H18.3049C18.5845 0.703448 18.8526 0.81467 19.0503 1.01239C19.2481 1.21011 19.3593 1.47819 19.3596 1.75781V6.37453L12.8435 12.8906H7.52367C7.43043 12.8906 7.34101 12.9277 7.27508 12.9936C7.20915 13.0595 7.17211 13.1489 7.17211 13.2422C7.17211 13.3354 7.20915 13.4248 7.27508 13.4908C7.34101 13.5567 7.43043 13.5938 7.52367 13.5938H12.1404L10.7645 14.9697C10.7554 14.9789 10.7467 14.9886 10.7386 14.9987L10.7377 15H7.52367C7.43043 15 7.34101 15.037 7.27508 15.103C7.20915 15.1689 7.17211 15.2583 7.17211 15.3516C7.17211 15.4448 7.20915 15.5342 7.27508 15.6002C7.34101 15.6661 7.43043 15.7031 7.52367 15.7031H10.4809L10.0121 17.1094H7.52367C7.43043 17.1094 7.34101 17.1464 7.27508 17.2123C7.20915 17.2783 7.17211 17.3677 7.17211 17.4609C7.17211 17.5542 7.20915 17.6436 7.27508 17.7095C7.34101 17.7755 7.43043 17.8125 7.52367 17.8125H10.1487C10.1741 17.8124 10.1994 17.8096 10.2242 17.8042C10.2761 17.8111 10.3289 17.8059 10.3785 17.7891L12.6158 17.0433C12.6182 17.0426 12.6203 17.0415 12.6225 17.0407C12.6435 17.0332 12.6636 17.0238 12.6827 17.0125C12.686 17.0106 12.6894 17.0088 12.6926 17.0067C12.7006 17.0016 12.7084 16.9961 12.7161 16.9903C12.7188 16.9882 12.7217 16.9863 12.7243 16.9842C12.7344 16.9762 12.7441 16.9676 12.7533 16.9584L14.0086 15.7031H16.4768C16.57 15.7031 16.6595 15.6661 16.7254 15.6002C16.7913 15.5342 16.8284 15.4448 16.8284 15.3516C16.8284 15.2583 16.7913 15.1689 16.7254 15.103C16.6595 15.037 16.57 15 16.4768 15H14.7117L19.3596 10.3521V20.3626ZM11.1667 15.8691L11.8538 16.5562L10.8232 16.8998L11.1667 15.8691ZM12.5047 16.2126L11.5103 15.2183L19.959 6.76955L19.9605 6.76814L20.8793 5.8493L21.8736 6.84366L12.5047 16.2126ZM23.1941 5.52319L22.3709 6.34641L21.3765 5.35205L22.1999 4.52873C22.2325 4.49608 22.2712 4.47018 22.3139 4.45251C22.3565 4.43484 22.4023 4.42574 22.4484 4.42574C22.4946 4.42574 22.5403 4.43484 22.5829 4.45251C22.6256 4.47018 22.6643 4.49608 22.697 4.52873L23.1942 5.02594C23.26 5.09191 23.297 5.18131 23.297 5.27452C23.297 5.36772 23.26 5.45712 23.1942 5.52309L23.1941 5.52319Z" fill="black"/>
</g>
<defs>
<clipPath id="clip0_898_29864">
<rect width="24" height="24" fill="white"/>
</clipPath>
</defs>
</svg>
