<svg width="24" height="24" viewBox="0 0 24 24" fill="none" xmlns="http://www.w3.org/2000/svg">
<g clip-path="url(#clip0_898_29856)">
<mask id="path-1-inside-1_898_29856" fill="white">
<path d="M12 0C5.3755 0 0 5.3755 0 12C0 18.6245 5.3755 24 12 24C18.6245 24 24 18.6245 24 12C24 5.3755 18.6245 0 12 0ZM12 0.5C18.354 0.5 23.5 5.6455 23.5 12C23.5 18.3545 18.354 23.5 12 23.5C5.646 23.5 0.5 18.3545 0.5 12C0.5 5.6455 5.646 0.5 12 0.5ZM11.074 4.7375V4.741C11.0333 4.73413 10.9917 4.73413 10.951 4.741C10.8445 4.76 10.81 4.7995 10.7685 4.833C10.7268 4.86757 10.6874 4.90481 10.6505 4.9445C10.573 5.026 10.4915 5.1235 10.411 5.2195C10.331 5.316 10.251 5.4115 10.1885 5.4805C10.1681 5.50292 10.1469 5.5246 10.125 5.5455C10.1015 5.5455 10.074 5.5405 10.036 5.536C9.9445 5.5235 9.8235 5.502 9.7 5.4805C9.577 5.459 9.4525 5.437 9.341 5.425C9.28741 5.41856 9.23347 5.41556 9.1795 5.416C9.1265 5.416 9.074 5.4105 8.9805 5.465C8.887 5.5195 8.868 5.5675 8.8405 5.6135C8.8135 5.6595 8.791 5.706 8.7685 5.758C8.7235 5.861 8.6785 5.981 8.6355 6.0995C8.5925 6.218 8.5505 6.335 8.5155 6.422C8.5005 6.4585 8.488 6.4855 8.4775 6.507C8.4484 6.51539 8.41905 6.5229 8.3895 6.5295C8.2995 6.5495 8.1785 6.571 8.0555 6.593C7.9325 6.615 7.807 6.638 7.698 6.665C7.644 6.6785 7.5935 6.6925 7.544 6.712C7.494 6.7315 7.443 6.742 7.374 6.825C7.305 6.908 7.304 6.96 7.294 7.0125C7.284 7.065 7.278 7.1165 7.274 7.1725C7.267 7.2855 7.267 7.4135 7.2665 7.54C7.2665 7.6665 7.2665 7.791 7.2625 7.885C7.261 7.925 7.2575 7.9535 7.255 7.9775C7.236 7.9915 7.213 8.009 7.18 8.0305C7.1015 8.0805 6.994 8.1425 6.8855 8.206C6.7775 8.2695 6.6685 8.3345 6.5755 8.3975C6.53044 8.42718 6.48735 8.45975 6.4465 8.495C6.4065 8.5305 6.3625 8.558 6.3265 8.659C6.29 8.76 6.3055 8.8095 6.3135 8.8625C6.3215 8.915 6.335 8.9655 6.3505 9.0195C6.3815 9.128 6.4245 9.2485 6.467 9.367C6.509 9.486 6.551 9.603 6.579 9.692C6.591 9.7305 6.599 9.759 6.6045 9.782C6.5915 9.802 6.5745 9.8275 6.5495 9.8595C6.493 9.9335 6.4145 10.028 6.334 10.125C6.254 10.222 6.1735 10.321 6.1075 10.412C6.07525 10.4554 6.04585 10.5008 6.0195 10.548C5.994 10.595 5.962 10.636 5.962 10.743C5.962 10.85 5.994 10.8915 6.0195 10.9385C6.045 10.9855 6.0745 11.0285 6.1075 11.074C6.1735 11.1655 6.254 11.264 6.334 11.3615C6.414 11.4585 6.493 11.553 6.55 11.6265C6.574 11.659 6.5915 11.684 6.6045 11.704C6.59726 11.7343 6.58892 11.7643 6.5795 11.794C6.551 11.883 6.5095 12.0005 6.467 12.119C6.4245 12.2375 6.382 12.3575 6.3505 12.466C6.33484 12.5178 6.32248 12.5706 6.3135 12.624C6.3055 12.677 6.29 12.726 6.326 12.827C6.3625 12.928 6.406 12.956 6.446 12.991C6.486 13.0265 6.5285 13.0575 6.575 13.089C6.6685 13.152 6.7775 13.217 6.8855 13.2805C6.994 13.344 7.1015 13.4055 7.1795 13.4555C7.213 13.476 7.236 13.4935 7.2545 13.508C7.2575 13.532 7.261 13.5615 7.2625 13.6015C7.2665 13.6955 7.2665 13.82 7.2665 13.9465C7.2665 14.0725 7.2665 14.1995 7.2745 14.3125C7.278 14.369 7.2835 14.421 7.294 14.4735C7.304 14.526 7.305 14.5785 7.374 14.661C7.443 14.744 7.494 14.755 7.544 14.7745C7.594 14.794 7.644 14.809 7.698 14.8225C7.807 14.8495 7.933 14.8725 8.0555 14.8945C8.1785 14.9165 8.299 14.938 8.3895 14.958C8.4275 14.9665 8.455 14.974 8.4775 14.9805C8.488 15.002 8.5005 15.029 8.5155 15.0655C8.5385 15.121 8.566 15.1995 8.593 15.2725L7.2725 17.5215C7.2454 17.5675 7.23262 17.6205 7.23578 17.6738C7.23895 17.727 7.25792 17.7782 7.29028 17.8206C7.32264 17.8631 7.36691 17.8949 7.41744 17.9121C7.46798 17.9292 7.52248 17.931 7.574 17.917L8.782 17.593L9.1065 18.802C9.12049 18.853 9.14924 18.8987 9.18913 18.9335C9.22902 18.9682 9.27828 18.9904 9.33073 18.9972C9.38317 19.004 9.43647 18.9952 9.48393 18.9719C9.53139 18.9486 9.5709 18.9117 9.5975 18.866L10.8435 16.709C10.87 16.724 10.9015 16.7375 10.951 16.746C11.058 16.765 11.104 16.74 11.1545 16.7225C11.2045 16.705 11.2525 16.684 11.3025 16.659C11.4035 16.609 11.5135 16.546 11.6225 16.4835C11.7305 16.4205 11.837 16.358 11.919 16.3145C11.9535 16.2965 11.9785 16.284 12 16.2745C12.0215 16.284 12.047 16.2965 12.081 16.3145C12.163 16.358 12.2695 16.4205 12.378 16.4835C12.4865 16.546 12.5965 16.6095 12.6975 16.659C12.7475 16.684 12.795 16.705 12.8455 16.7225C12.896 16.74 12.942 16.765 13.049 16.746C13.0864 16.7401 13.1225 16.7276 13.1555 16.709L14.4005 18.866C14.4271 18.9117 14.4666 18.9486 14.5141 18.9719C14.5615 18.9952 14.6148 19.004 14.6673 18.9972C14.7197 18.9904 14.769 18.9682 14.8089 18.9335C14.8488 18.8987 14.8775 18.853 14.8915 18.802L15.216 17.594L16.423 17.918C16.4744 17.9317 16.5288 17.9298 16.5792 17.9125C16.6295 17.8952 16.6736 17.8633 16.7058 17.821C16.738 17.7786 16.7569 17.7276 16.76 17.6744C16.7632 17.6213 16.7505 17.5684 16.7235 17.5225L15.406 15.2765C15.4335 15.2015 15.461 15.122 15.4845 15.0655C15.4995 15.029 15.512 15.002 15.5225 14.9805C15.545 14.974 15.5725 14.9665 15.6105 14.958C15.7005 14.938 15.8215 14.917 15.9445 14.8945C16.0675 14.8725 16.193 14.8495 16.302 14.8225C16.3543 14.8099 16.4058 14.7939 16.456 14.7745C16.506 14.7545 16.557 14.744 16.626 14.661C16.695 14.578 16.696 14.526 16.706 14.4735C16.716 14.421 16.722 14.3685 16.726 14.3125C16.733 14.1995 16.733 14.0725 16.7335 13.9465C16.7335 13.82 16.7335 13.6955 16.7375 13.6015C16.739 13.5615 16.7425 13.5315 16.745 13.508C16.764 13.494 16.787 13.4765 16.82 13.455C16.8985 13.405 17.005 13.344 17.1135 13.28C17.2215 13.217 17.331 13.152 17.4235 13.089C17.4705 13.0575 17.513 13.0265 17.5525 12.991C17.5925 12.956 17.6365 12.928 17.6725 12.827C17.709 12.726 17.6935 12.677 17.6855 12.624C17.6765 12.5706 17.6642 12.5178 17.6485 12.466C17.6133 12.3492 17.5744 12.2334 17.532 12.119C17.4928 12.0113 17.4555 11.903 17.42 11.794C17.4106 11.7643 17.4023 11.7343 17.395 11.704C17.4075 11.684 17.425 11.659 17.449 11.627C17.506 11.553 17.585 11.4585 17.665 11.3615C17.745 11.2645 17.8265 11.1655 17.8925 11.074C17.9255 11.029 17.955 10.9855 17.9805 10.9385C18.006 10.8915 18.038 10.8505 18.038 10.7435C18.038 10.636 18.006 10.5945 17.9805 10.548C17.9542 10.5008 17.9248 10.4554 17.8925 10.412C17.8265 10.321 17.745 10.222 17.665 10.125C17.585 10.028 17.506 9.9325 17.449 9.8585C17.43 9.83364 17.4118 9.80812 17.3945 9.782C17.4 9.7585 17.408 9.7305 17.4195 9.692C17.448 9.603 17.4895 9.486 17.532 9.367C17.5745 9.2485 17.617 9.128 17.6485 9.0195C17.664 8.9655 17.6775 8.915 17.6855 8.8625C17.6935 8.8095 17.709 8.76 17.673 8.659C17.6365 8.5585 17.593 8.5305 17.553 8.495C17.5122 8.4597 17.4691 8.42713 17.424 8.3975C17.3225 8.33045 17.219 8.26659 17.1135 8.206C17.005 8.1425 16.8985 8.0805 16.8205 8.0305C16.7948 8.01377 16.7698 7.9961 16.7455 7.9775C16.7425 7.9535 16.739 7.9245 16.7375 7.885C16.7335 7.791 16.7335 7.6665 16.7335 7.54C16.7335 7.4135 16.7335 7.2855 16.7255 7.173C16.7224 7.1193 16.7159 7.06586 16.706 7.013C16.696 6.9605 16.695 6.908 16.626 6.825C16.557 6.742 16.506 6.7315 16.456 6.712C16.406 6.692 16.356 6.6785 16.302 6.665C16.1836 6.63733 16.0644 6.61331 15.9445 6.593C15.8215 6.571 15.701 6.549 15.6105 6.5295C15.5809 6.5229 15.5516 6.51539 15.5225 6.507C15.5089 6.47911 15.4962 6.45076 15.4845 6.422C15.4495 6.335 15.4075 6.218 15.3645 6.0995C15.3237 5.98433 15.2793 5.87044 15.2315 5.758C15.2105 5.70816 15.1863 5.65973 15.159 5.613C15.132 5.568 15.1125 5.519 15.0195 5.465C14.926 5.41 14.8735 5.417 14.8205 5.416C14.767 5.416 14.715 5.421 14.659 5.425C14.5475 5.437 14.423 5.459 14.3 5.48C14.1765 5.502 14.0555 5.524 13.964 5.536C13.926 5.541 13.8985 5.544 13.875 5.546C13.8531 5.52491 13.8319 5.50306 13.8115 5.4805C13.7359 5.39477 13.6617 5.30776 13.589 5.2195C13.5085 5.1235 13.426 5.0245 13.349 4.9435C13.3123 4.9041 13.2731 4.86718 13.2315 4.833C13.19 4.7995 13.156 4.759 13.049 4.74C12.942 4.721 12.896 4.745 12.8455 4.7625C12.7955 4.78 12.7475 4.8025 12.6975 4.8275C12.5965 4.8775 12.4865 4.94 12.3775 5.0025C12.2695 5.066 12.163 5.1285 12.081 5.172C12.047 5.19 12.0215 5.2005 12 5.21C11.9785 5.2 11.9535 5.19 11.919 5.172C11.837 5.1285 11.7305 5.066 11.622 5.003C11.5174 4.94103 11.4108 4.88233 11.3025 4.827C11.2546 4.80236 11.2052 4.78081 11.1545 4.7625C11.1295 4.754 11.105 4.7435 11.074 4.7375ZM11.043 5.2645C11.0565 5.2705 11.0645 5.2725 11.081 5.2805C11.1595 5.3195 11.264 5.3785 11.371 5.4405C11.478 5.5025 11.587 5.5665 11.6845 5.618C11.7335 5.644 11.7795 5.668 11.825 5.6865C11.8715 5.7055 11.9085 5.7275 12 5.7275C12.0915 5.7275 12.1275 5.7055 12.174 5.6865C12.2217 5.6659 12.2684 5.64304 12.314 5.618C12.412 5.5665 12.522 5.5025 12.629 5.4405C12.736 5.3785 12.8405 5.319 12.919 5.2805C12.9355 5.272 12.9435 5.2705 12.957 5.2645C12.968 5.275 12.9745 5.2795 12.987 5.293C13.048 5.3565 13.127 5.45 13.206 5.545C13.286 5.64 13.366 5.738 13.4405 5.82C13.4775 5.8615 13.512 5.898 13.549 5.9315C13.5855 5.9655 13.6125 5.9985 13.698 6.0305C13.784 6.062 13.826 6.054 13.876 6.052C13.926 6.052 13.9765 6.0445 14.031 6.037C14.141 6.022 14.2655 5.9995 14.3865 5.9785C14.508 5.957 14.627 5.937 14.714 5.9275C14.7325 5.9275 14.74 5.928 14.755 5.9225L14.7735 5.962C14.8085 6.043 14.852 6.1575 14.8945 6.2745C14.937 6.3915 14.9795 6.5115 15.0215 6.6145C15.0425 6.6655 15.063 6.7125 15.086 6.757C15.109 6.8015 15.123 6.8415 15.1925 6.9005C15.262 6.9595 15.304 6.966 15.3515 6.9815C15.399 6.9965 15.448 7.0095 15.5015 7.0215C15.61 7.0455 15.734 7.0665 15.8555 7.089C15.977 7.111 16.0955 7.1325 16.1805 7.1535C16.1995 7.1585 16.207 7.162 16.2215 7.166C16.2235 7.1815 16.225 7.19 16.2265 7.21C16.2325 7.2985 16.233 7.42 16.2335 7.545C16.2335 7.6695 16.2335 7.797 16.2385 7.908C16.2405 7.964 16.2435 8.015 16.25 8.0645C16.2565 8.114 16.2565 8.1565 16.302 8.2355C16.347 8.314 16.3835 8.3355 16.423 8.366C16.462 8.397 16.504 8.426 16.551 8.456C16.644 8.516 16.754 8.579 16.8605 8.6415C16.967 8.704 17.0705 8.7665 17.1435 8.8155C17.16 8.8265 17.166 8.8325 17.1785 8.842C17.175 8.857 17.1735 8.866 17.168 8.8855C17.1435 8.9705 17.103 9.086 17.0615 9.203C17.0195 9.32 16.9765 9.439 16.9435 9.545C16.9272 9.59482 16.9131 9.64537 16.9015 9.6965C16.891 9.7455 16.8765 9.785 16.8915 9.874C16.907 9.963 16.9345 9.9955 16.961 10.038C16.9875 10.0805 17.018 10.123 17.052 10.167C17.119 10.255 17.2 10.352 17.2795 10.447C17.3585 10.543 17.4355 10.6375 17.4875 10.709C17.4995 10.7255 17.504 10.734 17.5125 10.747C17.504 10.7605 17.4995 10.7685 17.4875 10.785C17.4355 10.8565 17.3585 10.95 17.2795 11.046C17.2 11.1415 17.1195 11.239 17.052 11.327C17.018 11.371 16.987 11.412 16.961 11.454C16.9345 11.4965 16.907 11.531 16.8915 11.62C16.8765 11.709 16.891 11.749 16.9015 11.798C16.9115 11.847 16.9265 11.895 16.9435 11.948C16.977 12.054 17.0195 12.174 17.0615 12.291C17.1035 12.408 17.1435 12.5235 17.168 12.6085C17.1735 12.628 17.175 12.637 17.1785 12.6525C17.166 12.662 17.16 12.6675 17.1435 12.6785C17.0509 12.7393 16.9565 12.7973 16.8605 12.8525C16.754 12.915 16.644 12.9785 16.5505 13.038C16.504 13.068 16.462 13.096 16.423 13.127C16.3835 13.158 16.347 13.179 16.302 13.258C16.257 13.3365 16.257 13.378 16.25 13.428C16.2437 13.4801 16.2399 13.5325 16.2385 13.585C16.2335 13.696 16.2335 13.8225 16.2335 13.9475C16.2335 14.072 16.2325 14.1935 16.2265 14.2825C16.225 14.3025 16.2235 14.311 16.2215 14.3275C16.2065 14.3325 16.1995 14.335 16.1805 14.34C16.0955 14.361 15.977 14.3835 15.8555 14.405C15.734 14.4275 15.61 14.449 15.502 14.4725C15.4514 14.4831 15.4013 14.4961 15.352 14.5115C15.304 14.527 15.262 14.5345 15.192 14.594C15.123 14.6525 15.109 14.693 15.086 14.7375C15.0623 14.784 15.0408 14.8315 15.0215 14.88C14.9795 14.983 14.937 15.103 14.8945 15.22C14.852 15.3365 14.809 15.45 14.7735 15.531C14.7655 15.5495 14.761 15.556 14.7535 15.5705C14.7395 15.5705 14.732 15.5705 14.7135 15.5655C14.604 15.5517 14.495 15.5347 14.3865 15.5145C14.2655 15.493 14.1405 15.4705 14.0315 15.456C13.9799 15.4483 13.9281 15.4432 13.876 15.4405C13.826 15.4405 13.784 15.4325 13.698 15.464C13.6125 15.4955 13.5855 15.528 13.549 15.5615C13.5111 15.5973 13.4749 15.6349 13.4405 15.674C13.366 15.756 13.2855 15.854 13.206 15.949C13.1265 16.044 13.048 16.1355 12.9875 16.199L12.9575 16.2295C12.9435 16.2235 12.9355 16.221 12.919 16.213C12.8208 16.1621 12.7241 16.1084 12.629 16.052C12.522 15.99 12.412 15.926 12.314 15.874C12.2685 15.8492 12.2218 15.8266 12.174 15.8065C12.1275 15.7875 12.0915 15.7655 12 15.7655C11.9085 15.7655 11.8715 15.7875 11.825 15.8065C11.7773 15.8271 11.7306 15.85 11.685 15.875C11.587 15.927 11.478 15.991 11.371 16.0525C11.264 16.1145 11.1595 16.174 11.081 16.2125C11.0645 16.221 11.0565 16.2235 11.043 16.2295C11.032 16.219 11.0255 16.213 11.013 16.1995C10.952 16.1355 10.873 16.0445 10.794 15.9495C10.714 15.8545 10.634 15.756 10.5595 15.674C10.5251 15.6349 10.4889 15.5973 10.451 15.5615C10.4145 15.528 10.3875 15.4955 10.302 15.464C10.216 15.4325 10.174 15.4385 10.124 15.4405C10.074 15.4405 10.0235 15.4485 9.969 15.456C9.859 15.471 9.7345 15.4935 9.6135 15.5145C9.492 15.536 9.373 15.556 9.286 15.5655C9.268 15.5655 9.261 15.5655 9.246 15.5705C9.239 15.5565 9.2345 15.55 9.2265 15.5315C9.1915 15.45 9.148 15.3365 9.1055 15.2195C9.063 15.103 9.0205 14.983 8.9785 14.8795C8.95923 14.8312 8.93771 14.7838 8.914 14.7375C8.891 14.6925 8.877 14.6525 8.8075 14.5935C8.738 14.5345 8.696 14.527 8.6485 14.5115C8.59916 14.4961 8.5491 14.4831 8.4985 14.4725C8.39 14.4485 8.266 14.4275 8.1445 14.4055C8.023 14.3835 7.9045 14.3605 7.8195 14.34C7.8005 14.335 7.793 14.332 7.7785 14.327C7.7765 14.311 7.775 14.302 7.7735 14.282C7.7675 14.1935 7.767 14.072 7.7665 13.947C7.7665 13.8225 7.7665 13.696 7.7615 13.585C7.7601 13.5324 7.75626 13.4798 7.75 13.4275C7.7435 13.378 7.7435 13.3365 7.698 13.2575C7.653 13.179 7.6165 13.1575 7.577 13.127C7.53547 13.0953 7.49242 13.0656 7.448 13.038C7.355 12.9785 7.2455 12.915 7.1385 12.853C7.032 12.79 6.9285 12.728 6.8555 12.6785C6.839 12.6675 6.833 12.662 6.8205 12.6525C6.824 12.637 6.8255 12.6275 6.831 12.6085C6.8555 12.5235 6.896 12.408 6.9375 12.291C6.9795 12.174 7.0225 12.054 7.0555 11.948C7.0725 11.895 7.087 11.847 7.0975 11.798C7.108 11.749 7.1225 11.709 7.1075 11.62C7.092 11.531 7.0645 11.4965 7.038 11.454C7.00987 11.4103 6.97966 11.3679 6.9475 11.327C6.88 11.239 6.7985 11.142 6.7195 11.046C6.641 10.9505 6.5645 10.8565 6.5125 10.785C6.5005 10.7685 6.496 10.7605 6.4875 10.747C6.496 10.7335 6.5005 10.7255 6.5125 10.709C6.5645 10.6375 6.641 10.543 6.7195 10.4475C6.7985 10.3515 6.8795 10.254 6.9475 10.166C6.981 10.122 7.0115 10.0805 7.038 10.038C7.0645 9.9955 7.092 9.963 7.1075 9.874C7.123 9.785 7.108 9.745 7.0975 9.6965C7.08588 9.64537 7.07187 9.59481 7.0555 9.545C7.022 9.439 6.9795 9.32 6.9375 9.203C6.89895 9.09821 6.86344 8.99234 6.831 8.8855C6.8255 8.866 6.824 8.8575 6.8205 8.842C6.833 8.832 6.839 8.8265 6.8555 8.8155C6.928 8.7655 7.032 8.704 7.1385 8.6415C7.2455 8.579 7.355 8.5155 7.4485 8.4565C7.495 8.4265 7.538 8.397 7.577 8.3665C7.6165 8.335 7.653 8.314 7.698 8.2355C7.743 8.1565 7.743 8.114 7.75 8.0645C7.7565 8.0145 7.7595 7.964 7.7615 7.908C7.7665 7.797 7.7665 7.6695 7.7665 7.545C7.7665 7.42 7.7675 7.2985 7.7735 7.21C7.7745 7.19 7.7765 7.182 7.7785 7.166C7.7935 7.161 7.8005 7.158 7.8195 7.1535C7.9045 7.1325 8.023 7.111 8.1445 7.0885C8.266 7.067 8.39 7.0455 8.498 7.0215C8.54862 7.01059 8.59867 6.99725 8.648 6.9815C8.696 6.966 8.738 6.9595 8.808 6.9005C8.877 6.8415 8.891 6.801 8.914 6.757C8.937 6.712 8.9575 6.6655 8.9785 6.6145C9.0205 6.5115 9.063 6.3915 9.1055 6.2745C9.148 6.1575 9.191 6.043 9.2265 5.962L9.245 5.923C9.26 5.923 9.2675 5.923 9.286 5.928C9.373 5.937 9.492 5.957 9.6135 5.9785C9.7345 6 9.8595 6.0225 9.9685 6.037C10.0235 6.0445 10.074 6.0505 10.124 6.0525C10.174 6.0525 10.216 6.062 10.302 6.0305C10.3875 5.999 10.4145 5.9665 10.451 5.9325C10.4889 5.89684 10.5251 5.85946 10.5595 5.8205C10.634 5.738 10.7145 5.6405 10.794 5.545C10.8735 5.45 10.952 5.357 11.0125 5.293C11.0255 5.2795 11.0325 5.275 11.0425 5.2645H11.043ZM12 6.499C9.6555 6.499 7.75 8.4045 7.75 10.749C7.75 13.0935 9.6555 14.999 12 14.999C14.3445 14.999 16.25 13.0935 16.25 10.749C16.25 8.4045 14.3445 6.499 12 6.499ZM12 6.9705C12.4963 6.97011 12.9877 7.06758 13.4463 7.25734C13.9048 7.4471 14.3215 7.72542 14.6723 8.07638C15.0232 8.42734 15.3014 8.84404 15.491 9.30264C15.6807 9.76124 15.778 10.2527 15.7775 10.749C15.778 11.2452 15.6807 11.7367 15.491 12.1952C15.3014 12.6538 15.0231 13.0704 14.6723 13.4213C14.3214 13.7721 13.9048 14.0504 13.4462 14.24C12.9877 14.4297 12.4962 14.527 12 14.5265C11.5038 14.527 11.0123 14.4297 10.5538 14.24C10.0952 14.0504 9.67861 13.7721 9.32773 13.4213C8.97685 13.0704 8.69862 12.6538 8.50897 12.1952C8.31932 11.7367 8.22197 11.2452 8.2225 10.749C8.22197 10.2527 8.31932 9.76124 8.50895 9.30264C8.69859 8.84404 8.97681 8.42734 9.32767 8.07638C9.67854 7.72542 10.0952 7.4471 10.5537 7.25734C11.0123 7.06758 11.5037 6.97011 12 6.9705ZM11.9885 8.3555C11.838 8.3555 11.7725 8.433 11.7225 8.4875C11.6742 8.54214 11.6316 8.60162 11.5955 8.665C11.518 8.7945 11.442 8.95 11.368 9.1075C11.294 9.265 11.222 9.4245 11.162 9.545C11.132 9.605 11.105 9.6565 11.085 9.6895C11.081 9.696 11.079 9.698 11.075 9.703C11.07 9.703 11.0675 9.708 11.0605 9.708C11.023 9.7175 10.967 9.728 10.9005 9.738C10.767 9.76 10.594 9.781 10.4205 9.8045C10.248 9.828 10.0755 9.8545 9.9285 9.8905C9.85768 9.90627 9.78866 9.92922 9.7225 9.959C9.656 9.9905 9.563 10.029 9.5175 10.172C9.472 10.315 9.5245 10.4005 9.5605 10.465C9.5965 10.529 9.6405 10.5825 9.6905 10.64C9.7895 10.7535 9.9145 10.874 10.042 10.993C10.1695 11.1125 10.299 11.23 10.3955 11.324C10.4435 11.371 10.484 11.4125 10.509 11.4415C10.513 11.4465 10.5135 11.4485 10.5165 11.453C10.5165 11.4595 10.518 11.462 10.5175 11.4695C10.5132 11.5242 10.5067 11.5788 10.498 11.633C10.477 11.766 10.444 11.936 10.413 12.1075C10.382 12.279 10.353 12.45 10.342 12.6005C10.336 12.6755 10.3345 12.7455 10.3435 12.8185C10.3535 12.8915 10.361 12.9915 10.4835 13.079C10.6055 13.1665 10.703 13.142 10.7755 13.128C10.8467 13.1123 10.916 13.0894 10.9825 13.0595C11.1215 13.0005 11.275 12.9195 11.4275 12.8345C11.5805 12.7505 11.732 12.664 11.8515 12.6015C11.9115 12.5705 11.9635 12.546 11.999 12.5315C12.0065 12.5265 12.009 12.5265 12.0155 12.5265C12.0705 12.549 12.1245 12.5737 12.1775 12.6005C12.298 12.6615 12.4495 12.7455 12.6035 12.828C12.7575 12.9105 12.912 12.9915 13.052 13.049C13.122 13.0775 13.187 13.1005 13.26 13.114C13.3325 13.128 13.43 13.151 13.551 13.0615C13.672 12.9725 13.68 12.872 13.6885 12.799C13.6957 12.7268 13.6954 12.6541 13.6875 12.582C13.6745 12.432 13.6425 12.26 13.6095 12.089C13.5765 11.9175 13.542 11.748 13.5195 11.615C13.5099 11.5613 13.5024 11.5073 13.497 11.453V11.4375C13.535 11.3917 13.575 11.3477 13.617 11.3055C13.712 11.2105 13.841 11.0915 13.967 10.9705C14.093 10.8505 14.217 10.7295 14.3145 10.6145C14.3635 10.5565 14.406 10.501 14.4415 10.4365C14.4765 10.3715 14.529 10.287 14.4815 10.1445C14.434 10.002 14.3405 9.9635 14.2735 9.9325C14.2066 9.90328 14.1369 9.88099 14.0655 9.866C13.9027 9.83191 13.7384 9.80588 13.573 9.788C13.4 9.7665 13.226 9.747 13.093 9.728C13.0388 9.72015 12.9849 9.71014 12.9315 9.698C12.925 9.698 12.9235 9.693 12.918 9.693C12.914 9.688 12.9115 9.686 12.907 9.6795C12.8792 9.63303 12.8531 9.58549 12.829 9.537C12.7675 9.417 12.693 9.2595 12.617 9.1025C12.547 8.95209 12.4696 8.80524 12.385 8.6625C12.3479 8.59951 12.3043 8.54053 12.255 8.4865C12.204 8.4325 12.1385 8.3565 11.9885 8.3575V8.3555ZM11.992 8.9855C12.046 9.079 12.105 9.189 12.167 9.3175C12.241 9.4695 12.3145 9.629 12.383 9.7625C12.417 9.8295 12.4495 9.8895 12.483 9.9435C12.5175 9.9975 12.5395 10.0435 12.621 10.1015C12.703 10.16 12.7535 10.166 12.8155 10.1805C12.8775 10.1955 12.9455 10.207 13.0195 10.218C13.1685 10.24 13.3435 10.2595 13.5115 10.2805C13.653 10.298 13.776 10.318 13.8815 10.339C13.8095 10.419 13.723 10.509 13.62 10.6075C13.498 10.7245 13.369 10.844 13.2625 10.95C13.2095 11.0035 13.1625 11.0525 13.1225 11.1015C13.081 11.1505 13.043 11.1855 13.0125 11.2815C12.9825 11.3765 12.9925 11.4265 12.998 11.49C13.003 11.5535 13.013 11.6215 13.0255 11.695C13.0505 11.8435 13.087 12.015 13.119 12.1815C13.146 12.3215 13.165 12.4445 13.1775 12.5515C13.0634 12.5002 12.9512 12.4448 12.841 12.3855C12.691 12.3055 12.5375 12.2205 12.4035 12.1525C12.3423 12.1208 12.2797 12.0918 12.216 12.0655C12.1565 12.0415 12.111 12.0165 12.011 12.0175C11.91 12.0175 11.866 12.044 11.8065 12.0685C11.748 12.093 11.6865 12.1235 11.62 12.1585C11.487 12.2275 11.334 12.3145 11.1855 12.3965C11.0605 12.4655 10.9485 12.5215 10.8505 12.5665C10.862 12.459 10.8805 12.3355 10.9055 12.1955C10.9355 12.029 10.969 11.8565 10.992 11.708C11.004 11.634 11.012 11.5665 11.017 11.503C11.021 11.4395 11.0305 11.389 10.999 11.294C10.9675 11.199 10.93 11.1645 10.889 11.116C10.8432 11.0639 10.7952 11.0139 10.745 10.966C10.6375 10.861 10.5075 10.7435 10.384 10.628C10.2925 10.5427 10.2041 10.4541 10.119 10.3625C10.225 10.3405 10.348 10.3175 10.489 10.299C10.657 10.276 10.831 10.2555 10.9795 10.2315C11.0535 10.2195 11.121 10.2065 11.1825 10.1915C11.2445 10.176 11.296 10.17 11.377 10.1105C11.458 10.0505 11.4785 10.0045 11.512 9.9505C11.545 9.8955 11.577 9.835 11.6105 9.7675C11.677 9.633 11.7495 9.4735 11.8215 9.3205C11.8815 9.1915 11.9395 9.0795 11.992 8.9855ZM8.852 15.8955C8.875 15.9365 8.8985 15.9785 8.9805 16.0265C9.074 16.081 9.1265 16.0735 9.1795 16.075C9.233 16.075 9.285 16.07 9.341 16.0665C9.4525 16.0545 9.577 16.0325 9.7 16.0105C9.8235 15.989 9.9445 15.9675 10.036 15.9555C10.074 15.9505 10.1015 15.9475 10.125 15.9455C10.142 15.962 10.162 15.982 10.1885 16.0105C10.251 16.08 10.3305 16.1755 10.411 16.2715L10.451 16.3175L9.457 18.04L9.2315 17.198C9.21289 17.1293 9.16778 17.0709 9.1061 17.0354C9.04442 17 8.97119 16.9905 8.9025 17.009L8.0675 17.2325L8.8515 15.8955H8.852ZM15.1465 15.9005L15.9295 17.2355L15.0945 17.0115C15.0257 16.9933 14.9526 17.0032 14.8911 17.0389C14.8296 17.0746 14.7848 17.1333 14.7665 17.202L14.541 18.042L13.547 16.3215C13.561 16.3045 13.575 16.2905 13.589 16.2735C13.669 16.177 13.749 16.082 13.8115 16.0125C13.8319 15.9901 13.8531 15.9684 13.875 15.9475C13.8985 15.9475 13.926 15.9535 13.964 15.9575C14.0555 15.9695 14.1765 15.991 14.3 16.0125C14.423 16.034 14.5475 16.056 14.659 16.0685C14.715 16.0745 14.767 16.0785 14.8205 16.077C14.8735 16.077 14.926 16.083 15.0195 16.0285C15.074 16 15.1184 15.9553 15.1465 15.9005Z"/>
</mask>
<path d="M12 0C5.3755 0 0 5.3755 0 12C0 18.6245 5.3755 24 12 24C18.6245 24 24 18.6245 24 12C24 5.3755 18.6245 0 12 0ZM12 0.5C18.354 0.5 23.5 5.6455 23.5 12C23.5 18.3545 18.354 23.5 12 23.5C5.646 23.5 0.5 18.3545 0.5 12C0.5 5.6455 5.646 0.5 12 0.5ZM11.074 4.7375V4.741C11.0333 4.73413 10.9917 4.73413 10.951 4.741C10.8445 4.76 10.81 4.7995 10.7685 4.833C10.7268 4.86757 10.6874 4.90481 10.6505 4.9445C10.573 5.026 10.4915 5.1235 10.411 5.2195C10.331 5.316 10.251 5.4115 10.1885 5.4805C10.1681 5.50292 10.1469 5.5246 10.125 5.5455C10.1015 5.5455 10.074 5.5405 10.036 5.536C9.9445 5.5235 9.8235 5.502 9.7 5.4805C9.577 5.459 9.4525 5.437 9.341 5.425C9.28741 5.41856 9.23347 5.41556 9.1795 5.416C9.1265 5.416 9.074 5.4105 8.9805 5.465C8.887 5.5195 8.868 5.5675 8.8405 5.6135C8.8135 5.6595 8.791 5.706 8.7685 5.758C8.7235 5.861 8.6785 5.981 8.6355 6.0995C8.5925 6.218 8.5505 6.335 8.5155 6.422C8.5005 6.4585 8.488 6.4855 8.4775 6.507C8.4484 6.51539 8.41905 6.5229 8.3895 6.5295C8.2995 6.5495 8.1785 6.571 8.0555 6.593C7.9325 6.615 7.807 6.638 7.698 6.665C7.644 6.6785 7.5935 6.6925 7.544 6.712C7.494 6.7315 7.443 6.742 7.374 6.825C7.305 6.908 7.304 6.96 7.294 7.0125C7.284 7.065 7.278 7.1165 7.274 7.1725C7.267 7.2855 7.267 7.4135 7.2665 7.54C7.2665 7.6665 7.2665 7.791 7.2625 7.885C7.261 7.925 7.2575 7.9535 7.255 7.9775C7.236 7.9915 7.213 8.009 7.18 8.0305C7.1015 8.0805 6.994 8.1425 6.8855 8.206C6.7775 8.2695 6.6685 8.3345 6.5755 8.3975C6.53044 8.42718 6.48735 8.45975 6.4465 8.495C6.4065 8.5305 6.3625 8.558 6.3265 8.659C6.29 8.76 6.3055 8.8095 6.3135 8.8625C6.3215 8.915 6.335 8.9655 6.3505 9.0195C6.3815 9.128 6.4245 9.2485 6.467 9.367C6.509 9.486 6.551 9.603 6.579 9.692C6.591 9.7305 6.599 9.759 6.6045 9.782C6.5915 9.802 6.5745 9.8275 6.5495 9.8595C6.493 9.9335 6.4145 10.028 6.334 10.125C6.254 10.222 6.1735 10.321 6.1075 10.412C6.07525 10.4554 6.04585 10.5008 6.0195 10.548C5.994 10.595 5.962 10.636 5.962 10.743C5.962 10.85 5.994 10.8915 6.0195 10.9385C6.045 10.9855 6.0745 11.0285 6.1075 11.074C6.1735 11.1655 6.254 11.264 6.334 11.3615C6.414 11.4585 6.493 11.553 6.55 11.6265C6.574 11.659 6.5915 11.684 6.6045 11.704C6.59726 11.7343 6.58892 11.7643 6.5795 11.794C6.551 11.883 6.5095 12.0005 6.467 12.119C6.4245 12.2375 6.382 12.3575 6.3505 12.466C6.33484 12.5178 6.32248 12.5706 6.3135 12.624C6.3055 12.677 6.29 12.726 6.326 12.827C6.3625 12.928 6.406 12.956 6.446 12.991C6.486 13.0265 6.5285 13.0575 6.575 13.089C6.6685 13.152 6.7775 13.217 6.8855 13.2805C6.994 13.344 7.1015 13.4055 7.1795 13.4555C7.213 13.476 7.236 13.4935 7.2545 13.508C7.2575 13.532 7.261 13.5615 7.2625 13.6015C7.2665 13.6955 7.2665 13.82 7.2665 13.9465C7.2665 14.0725 7.2665 14.1995 7.2745 14.3125C7.278 14.369 7.2835 14.421 7.294 14.4735C7.304 14.526 7.305 14.5785 7.374 14.661C7.443 14.744 7.494 14.755 7.544 14.7745C7.594 14.794 7.644 14.809 7.698 14.8225C7.807 14.8495 7.933 14.8725 8.0555 14.8945C8.1785 14.9165 8.299 14.938 8.3895 14.958C8.4275 14.9665 8.455 14.974 8.4775 14.9805C8.488 15.002 8.5005 15.029 8.5155 15.0655C8.5385 15.121 8.566 15.1995 8.593 15.2725L7.2725 17.5215C7.2454 17.5675 7.23262 17.6205 7.23578 17.6738C7.23895 17.727 7.25792 17.7782 7.29028 17.8206C7.32264 17.8631 7.36691 17.8949 7.41744 17.9121C7.46798 17.9292 7.52248 17.931 7.574 17.917L8.782 17.593L9.1065 18.802C9.12049 18.853 9.14924 18.8987 9.18913 18.9335C9.22902 18.9682 9.27828 18.9904 9.33073 18.9972C9.38317 19.004 9.43647 18.9952 9.48393 18.9719C9.53139 18.9486 9.5709 18.9117 9.5975 18.866L10.8435 16.709C10.87 16.724 10.9015 16.7375 10.951 16.746C11.058 16.765 11.104 16.74 11.1545 16.7225C11.2045 16.705 11.2525 16.684 11.3025 16.659C11.4035 16.609 11.5135 16.546 11.6225 16.4835C11.7305 16.4205 11.837 16.358 11.919 16.3145C11.9535 16.2965 11.9785 16.284 12 16.2745C12.0215 16.284 12.047 16.2965 12.081 16.3145C12.163 16.358 12.2695 16.4205 12.378 16.4835C12.4865 16.546 12.5965 16.6095 12.6975 16.659C12.7475 16.684 12.795 16.705 12.8455 16.7225C12.896 16.74 12.942 16.765 13.049 16.746C13.0864 16.7401 13.1225 16.7276 13.1555 16.709L14.4005 18.866C14.4271 18.9117 14.4666 18.9486 14.5141 18.9719C14.5615 18.9952 14.6148 19.004 14.6673 18.9972C14.7197 18.9904 14.769 18.9682 14.8089 18.9335C14.8488 18.8987 14.8775 18.853 14.8915 18.802L15.216 17.594L16.423 17.918C16.4744 17.9317 16.5288 17.9298 16.5792 17.9125C16.6295 17.8952 16.6736 17.8633 16.7058 17.821C16.738 17.7786 16.7569 17.7276 16.76 17.6744C16.7632 17.6213 16.7505 17.5684 16.7235 17.5225L15.406 15.2765C15.4335 15.2015 15.461 15.122 15.4845 15.0655C15.4995 15.029 15.512 15.002 15.5225 14.9805C15.545 14.974 15.5725 14.9665 15.6105 14.958C15.7005 14.938 15.8215 14.917 15.9445 14.8945C16.0675 14.8725 16.193 14.8495 16.302 14.8225C16.3543 14.8099 16.4058 14.7939 16.456 14.7745C16.506 14.7545 16.557 14.744 16.626 14.661C16.695 14.578 16.696 14.526 16.706 14.4735C16.716 14.421 16.722 14.3685 16.726 14.3125C16.733 14.1995 16.733 14.0725 16.7335 13.9465C16.7335 13.82 16.7335 13.6955 16.7375 13.6015C16.739 13.5615 16.7425 13.5315 16.745 13.508C16.764 13.494 16.787 13.4765 16.82 13.455C16.8985 13.405 17.005 13.344 17.1135 13.28C17.2215 13.217 17.331 13.152 17.4235 13.089C17.4705 13.0575 17.513 13.0265 17.5525 12.991C17.5925 12.956 17.6365 12.928 17.6725 12.827C17.709 12.726 17.6935 12.677 17.6855 12.624C17.6765 12.5706 17.6642 12.5178 17.6485 12.466C17.6133 12.3492 17.5744 12.2334 17.532 12.119C17.4928 12.0113 17.4555 11.903 17.42 11.794C17.4106 11.7643 17.4023 11.7343 17.395 11.704C17.4075 11.684 17.425 11.659 17.449 11.627C17.506 11.553 17.585 11.4585 17.665 11.3615C17.745 11.2645 17.8265 11.1655 17.8925 11.074C17.9255 11.029 17.955 10.9855 17.9805 10.9385C18.006 10.8915 18.038 10.8505 18.038 10.7435C18.038 10.636 18.006 10.5945 17.9805 10.548C17.9542 10.5008 17.9248 10.4554 17.8925 10.412C17.8265 10.321 17.745 10.222 17.665 10.125C17.585 10.028 17.506 9.9325 17.449 9.8585C17.43 9.83364 17.4118 9.80812 17.3945 9.782C17.4 9.7585 17.408 9.7305 17.4195 9.692C17.448 9.603 17.4895 9.486 17.532 9.367C17.5745 9.2485 17.617 9.128 17.6485 9.0195C17.664 8.9655 17.6775 8.915 17.6855 8.8625C17.6935 8.8095 17.709 8.76 17.673 8.659C17.6365 8.5585 17.593 8.5305 17.553 8.495C17.5122 8.4597 17.4691 8.42713 17.424 8.3975C17.3225 8.33045 17.219 8.26659 17.1135 8.206C17.005 8.1425 16.8985 8.0805 16.8205 8.0305C16.7948 8.01377 16.7698 7.9961 16.7455 7.9775C16.7425 7.9535 16.739 7.9245 16.7375 7.885C16.7335 7.791 16.7335 7.6665 16.7335 7.54C16.7335 7.4135 16.7335 7.2855 16.7255 7.173C16.7224 7.1193 16.7159 7.06586 16.706 7.013C16.696 6.9605 16.695 6.908 16.626 6.825C16.557 6.742 16.506 6.7315 16.456 6.712C16.406 6.692 16.356 6.6785 16.302 6.665C16.1836 6.63733 16.0644 6.61331 15.9445 6.593C15.8215 6.571 15.701 6.549 15.6105 6.5295C15.5809 6.5229 15.5516 6.51539 15.5225 6.507C15.5089 6.47911 15.4962 6.45076 15.4845 6.422C15.4495 6.335 15.4075 6.218 15.3645 6.0995C15.3237 5.98433 15.2793 5.87044 15.2315 5.758C15.2105 5.70816 15.1863 5.65973 15.159 5.613C15.132 5.568 15.1125 5.519 15.0195 5.465C14.926 5.41 14.8735 5.417 14.8205 5.416C14.767 5.416 14.715 5.421 14.659 5.425C14.5475 5.437 14.423 5.459 14.3 5.48C14.1765 5.502 14.0555 5.524 13.964 5.536C13.926 5.541 13.8985 5.544 13.875 5.546C13.8531 5.52491 13.8319 5.50306 13.8115 5.4805C13.7359 5.39477 13.6617 5.30776 13.589 5.2195C13.5085 5.1235 13.426 5.0245 13.349 4.9435C13.3123 4.9041 13.2731 4.86718 13.2315 4.833C13.19 4.7995 13.156 4.759 13.049 4.74C12.942 4.721 12.896 4.745 12.8455 4.7625C12.7955 4.78 12.7475 4.8025 12.6975 4.8275C12.5965 4.8775 12.4865 4.94 12.3775 5.0025C12.2695 5.066 12.163 5.1285 12.081 5.172C12.047 5.19 12.0215 5.2005 12 5.21C11.9785 5.2 11.9535 5.19 11.919 5.172C11.837 5.1285 11.7305 5.066 11.622 5.003C11.5174 4.94103 11.4108 4.88233 11.3025 4.827C11.2546 4.80236 11.2052 4.78081 11.1545 4.7625C11.1295 4.754 11.105 4.7435 11.074 4.7375ZM11.043 5.2645C11.0565 5.2705 11.0645 5.2725 11.081 5.2805C11.1595 5.3195 11.264 5.3785 11.371 5.4405C11.478 5.5025 11.587 5.5665 11.6845 5.618C11.7335 5.644 11.7795 5.668 11.825 5.6865C11.8715 5.7055 11.9085 5.7275 12 5.7275C12.0915 5.7275 12.1275 5.7055 12.174 5.6865C12.2217 5.6659 12.2684 5.64304 12.314 5.618C12.412 5.5665 12.522 5.5025 12.629 5.4405C12.736 5.3785 12.8405 5.319 12.919 5.2805C12.9355 5.272 12.9435 5.2705 12.957 5.2645C12.968 5.275 12.9745 5.2795 12.987 5.293C13.048 5.3565 13.127 5.45 13.206 5.545C13.286 5.64 13.366 5.738 13.4405 5.82C13.4775 5.8615 13.512 5.898 13.549 5.9315C13.5855 5.9655 13.6125 5.9985 13.698 6.0305C13.784 6.062 13.826 6.054 13.876 6.052C13.926 6.052 13.9765 6.0445 14.031 6.037C14.141 6.022 14.2655 5.9995 14.3865 5.9785C14.508 5.957 14.627 5.937 14.714 5.9275C14.7325 5.9275 14.74 5.928 14.755 5.9225L14.7735 5.962C14.8085 6.043 14.852 6.1575 14.8945 6.2745C14.937 6.3915 14.9795 6.5115 15.0215 6.6145C15.0425 6.6655 15.063 6.7125 15.086 6.757C15.109 6.8015 15.123 6.8415 15.1925 6.9005C15.262 6.9595 15.304 6.966 15.3515 6.9815C15.399 6.9965 15.448 7.0095 15.5015 7.0215C15.61 7.0455 15.734 7.0665 15.8555 7.089C15.977 7.111 16.0955 7.1325 16.1805 7.1535C16.1995 7.1585 16.207 7.162 16.2215 7.166C16.2235 7.1815 16.225 7.19 16.2265 7.21C16.2325 7.2985 16.233 7.42 16.2335 7.545C16.2335 7.6695 16.2335 7.797 16.2385 7.908C16.2405 7.964 16.2435 8.015 16.25 8.0645C16.2565 8.114 16.2565 8.1565 16.302 8.2355C16.347 8.314 16.3835 8.3355 16.423 8.366C16.462 8.397 16.504 8.426 16.551 8.456C16.644 8.516 16.754 8.579 16.8605 8.6415C16.967 8.704 17.0705 8.7665 17.1435 8.8155C17.16 8.8265 17.166 8.8325 17.1785 8.842C17.175 8.857 17.1735 8.866 17.168 8.8855C17.1435 8.9705 17.103 9.086 17.0615 9.203C17.0195 9.32 16.9765 9.439 16.9435 9.545C16.9272 9.59482 16.9131 9.64537 16.9015 9.6965C16.891 9.7455 16.8765 9.785 16.8915 9.874C16.907 9.963 16.9345 9.9955 16.961 10.038C16.9875 10.0805 17.018 10.123 17.052 10.167C17.119 10.255 17.2 10.352 17.2795 10.447C17.3585 10.543 17.4355 10.6375 17.4875 10.709C17.4995 10.7255 17.504 10.734 17.5125 10.747C17.504 10.7605 17.4995 10.7685 17.4875 10.785C17.4355 10.8565 17.3585 10.95 17.2795 11.046C17.2 11.1415 17.1195 11.239 17.052 11.327C17.018 11.371 16.987 11.412 16.961 11.454C16.9345 11.4965 16.907 11.531 16.8915 11.62C16.8765 11.709 16.891 11.749 16.9015 11.798C16.9115 11.847 16.9265 11.895 16.9435 11.948C16.977 12.054 17.0195 12.174 17.0615 12.291C17.1035 12.408 17.1435 12.5235 17.168 12.6085C17.1735 12.628 17.175 12.637 17.1785 12.6525C17.166 12.662 17.16 12.6675 17.1435 12.6785C17.0509 12.7393 16.9565 12.7973 16.8605 12.8525C16.754 12.915 16.644 12.9785 16.5505 13.038C16.504 13.068 16.462 13.096 16.423 13.127C16.3835 13.158 16.347 13.179 16.302 13.258C16.257 13.3365 16.257 13.378 16.25 13.428C16.2437 13.4801 16.2399 13.5325 16.2385 13.585C16.2335 13.696 16.2335 13.8225 16.2335 13.9475C16.2335 14.072 16.2325 14.1935 16.2265 14.2825C16.225 14.3025 16.2235 14.311 16.2215 14.3275C16.2065 14.3325 16.1995 14.335 16.1805 14.34C16.0955 14.361 15.977 14.3835 15.8555 14.405C15.734 14.4275 15.61 14.449 15.502 14.4725C15.4514 14.4831 15.4013 14.4961 15.352 14.5115C15.304 14.527 15.262 14.5345 15.192 14.594C15.123 14.6525 15.109 14.693 15.086 14.7375C15.0623 14.784 15.0408 14.8315 15.0215 14.88C14.9795 14.983 14.937 15.103 14.8945 15.22C14.852 15.3365 14.809 15.45 14.7735 15.531C14.7655 15.5495 14.761 15.556 14.7535 15.5705C14.7395 15.5705 14.732 15.5705 14.7135 15.5655C14.604 15.5517 14.495 15.5347 14.3865 15.5145C14.2655 15.493 14.1405 15.4705 14.0315 15.456C13.9799 15.4483 13.9281 15.4432 13.876 15.4405C13.826 15.4405 13.784 15.4325 13.698 15.464C13.6125 15.4955 13.5855 15.528 13.549 15.5615C13.5111 15.5973 13.4749 15.6349 13.4405 15.674C13.366 15.756 13.2855 15.854 13.206 15.949C13.1265 16.044 13.048 16.1355 12.9875 16.199L12.9575 16.2295C12.9435 16.2235 12.9355 16.221 12.919 16.213C12.8208 16.1621 12.7241 16.1084 12.629 16.052C12.522 15.99 12.412 15.926 12.314 15.874C12.2685 15.8492 12.2218 15.8266 12.174 15.8065C12.1275 15.7875 12.0915 15.7655 12 15.7655C11.9085 15.7655 11.8715 15.7875 11.825 15.8065C11.7773 15.8271 11.7306 15.85 11.685 15.875C11.587 15.927 11.478 15.991 11.371 16.0525C11.264 16.1145 11.1595 16.174 11.081 16.2125C11.0645 16.221 11.0565 16.2235 11.043 16.2295C11.032 16.219 11.0255 16.213 11.013 16.1995C10.952 16.1355 10.873 16.0445 10.794 15.9495C10.714 15.8545 10.634 15.756 10.5595 15.674C10.5251 15.6349 10.4889 15.5973 10.451 15.5615C10.4145 15.528 10.3875 15.4955 10.302 15.464C10.216 15.4325 10.174 15.4385 10.124 15.4405C10.074 15.4405 10.0235 15.4485 9.969 15.456C9.859 15.471 9.7345 15.4935 9.6135 15.5145C9.492 15.536 9.373 15.556 9.286 15.5655C9.268 15.5655 9.261 15.5655 9.246 15.5705C9.239 15.5565 9.2345 15.55 9.2265 15.5315C9.1915 15.45 9.148 15.3365 9.1055 15.2195C9.063 15.103 9.0205 14.983 8.9785 14.8795C8.95923 14.8312 8.93771 14.7838 8.914 14.7375C8.891 14.6925 8.877 14.6525 8.8075 14.5935C8.738 14.5345 8.696 14.527 8.6485 14.5115C8.59916 14.4961 8.5491 14.4831 8.4985 14.4725C8.39 14.4485 8.266 14.4275 8.1445 14.4055C8.023 14.3835 7.9045 14.3605 7.8195 14.34C7.8005 14.335 7.793 14.332 7.7785 14.327C7.7765 14.311 7.775 14.302 7.7735 14.282C7.7675 14.1935 7.767 14.072 7.7665 13.947C7.7665 13.8225 7.7665 13.696 7.7615 13.585C7.7601 13.5324 7.75626 13.4798 7.75 13.4275C7.7435 13.378 7.7435 13.3365 7.698 13.2575C7.653 13.179 7.6165 13.1575 7.577 13.127C7.53547 13.0953 7.49242 13.0656 7.448 13.038C7.355 12.9785 7.2455 12.915 7.1385 12.853C7.032 12.79 6.9285 12.728 6.8555 12.6785C6.839 12.6675 6.833 12.662 6.8205 12.6525C6.824 12.637 6.8255 12.6275 6.831 12.6085C6.8555 12.5235 6.896 12.408 6.9375 12.291C6.9795 12.174 7.0225 12.054 7.0555 11.948C7.0725 11.895 7.087 11.847 7.0975 11.798C7.108 11.749 7.1225 11.709 7.1075 11.62C7.092 11.531 7.0645 11.4965 7.038 11.454C7.00987 11.4103 6.97966 11.3679 6.9475 11.327C6.88 11.239 6.7985 11.142 6.7195 11.046C6.641 10.9505 6.5645 10.8565 6.5125 10.785C6.5005 10.7685 6.496 10.7605 6.4875 10.747C6.496 10.7335 6.5005 10.7255 6.5125 10.709C6.5645 10.6375 6.641 10.543 6.7195 10.4475C6.7985 10.3515 6.8795 10.254 6.9475 10.166C6.981 10.122 7.0115 10.0805 7.038 10.038C7.0645 9.9955 7.092 9.963 7.1075 9.874C7.123 9.785 7.108 9.745 7.0975 9.6965C7.08588 9.64537 7.07187 9.59481 7.0555 9.545C7.022 9.439 6.9795 9.32 6.9375 9.203C6.89895 9.09821 6.86344 8.99234 6.831 8.8855C6.8255 8.866 6.824 8.8575 6.8205 8.842C6.833 8.832 6.839 8.8265 6.8555 8.8155C6.928 8.7655 7.032 8.704 7.1385 8.6415C7.2455 8.579 7.355 8.5155 7.4485 8.4565C7.495 8.4265 7.538 8.397 7.577 8.3665C7.6165 8.335 7.653 8.314 7.698 8.2355C7.743 8.1565 7.743 8.114 7.75 8.0645C7.7565 8.0145 7.7595 7.964 7.7615 7.908C7.7665 7.797 7.7665 7.6695 7.7665 7.545C7.7665 7.42 7.7675 7.2985 7.7735 7.21C7.7745 7.19 7.7765 7.182 7.7785 7.166C7.7935 7.161 7.8005 7.158 7.8195 7.1535C7.9045 7.1325 8.023 7.111 8.1445 7.0885C8.266 7.067 8.39 7.0455 8.498 7.0215C8.54862 7.01059 8.59867 6.99725 8.648 6.9815C8.696 6.966 8.738 6.9595 8.808 6.9005C8.877 6.8415 8.891 6.801 8.914 6.757C8.937 6.712 8.9575 6.6655 8.9785 6.6145C9.0205 6.5115 9.063 6.3915 9.1055 6.2745C9.148 6.1575 9.191 6.043 9.2265 5.962L9.245 5.923C9.26 5.923 9.2675 5.923 9.286 5.928C9.373 5.937 9.492 5.957 9.6135 5.9785C9.7345 6 9.8595 6.0225 9.9685 6.037C10.0235 6.0445 10.074 6.0505 10.124 6.0525C10.174 6.0525 10.216 6.062 10.302 6.0305C10.3875 5.999 10.4145 5.9665 10.451 5.9325C10.4889 5.89684 10.5251 5.85946 10.5595 5.8205C10.634 5.738 10.7145 5.6405 10.794 5.545C10.8735 5.45 10.952 5.357 11.0125 5.293C11.0255 5.2795 11.0325 5.275 11.0425 5.2645H11.043ZM12 6.499C9.6555 6.499 7.75 8.4045 7.75 10.749C7.75 13.0935 9.6555 14.999 12 14.999C14.3445 14.999 16.25 13.0935 16.25 10.749C16.25 8.4045 14.3445 6.499 12 6.499ZM12 6.9705C12.4963 6.97011 12.9877 7.06758 13.4463 7.25734C13.9048 7.4471 14.3215 7.72542 14.6723 8.07638C15.0232 8.42734 15.3014 8.84404 15.491 9.30264C15.6807 9.76124 15.778 10.2527 15.7775 10.749C15.778 11.2452 15.6807 11.7367 15.491 12.1952C15.3014 12.6538 15.0231 13.0704 14.6723 13.4213C14.3214 13.7721 13.9048 14.0504 13.4462 14.24C12.9877 14.4297 12.4962 14.527 12 14.5265C11.5038 14.527 11.0123 14.4297 10.5538 14.24C10.0952 14.0504 9.67861 13.7721 9.32773 13.4213C8.97685 13.0704 8.69862 12.6538 8.50897 12.1952C8.31932 11.7367 8.22197 11.2452 8.2225 10.749C8.22197 10.2527 8.31932 9.76124 8.50895 9.30264C8.69859 8.84404 8.97681 8.42734 9.32767 8.07638C9.67854 7.72542 10.0952 7.4471 10.5537 7.25734C11.0123 7.06758 11.5037 6.97011 12 6.9705ZM11.9885 8.3555C11.838 8.3555 11.7725 8.433 11.7225 8.4875C11.6742 8.54214 11.6316 8.60162 11.5955 8.665C11.518 8.7945 11.442 8.95 11.368 9.1075C11.294 9.265 11.222 9.4245 11.162 9.545C11.132 9.605 11.105 9.6565 11.085 9.6895C11.081 9.696 11.079 9.698 11.075 9.703C11.07 9.703 11.0675 9.708 11.0605 9.708C11.023 9.7175 10.967 9.728 10.9005 9.738C10.767 9.76 10.594 9.781 10.4205 9.8045C10.248 9.828 10.0755 9.8545 9.9285 9.8905C9.85768 9.90627 9.78866 9.92922 9.7225 9.959C9.656 9.9905 9.563 10.029 9.5175 10.172C9.472 10.315 9.5245 10.4005 9.5605 10.465C9.5965 10.529 9.6405 10.5825 9.6905 10.64C9.7895 10.7535 9.9145 10.874 10.042 10.993C10.1695 11.1125 10.299 11.23 10.3955 11.324C10.4435 11.371 10.484 11.4125 10.509 11.4415C10.513 11.4465 10.5135 11.4485 10.5165 11.453C10.5165 11.4595 10.518 11.462 10.5175 11.4695C10.5132 11.5242 10.5067 11.5788 10.498 11.633C10.477 11.766 10.444 11.936 10.413 12.1075C10.382 12.279 10.353 12.45 10.342 12.6005C10.336 12.6755 10.3345 12.7455 10.3435 12.8185C10.3535 12.8915 10.361 12.9915 10.4835 13.079C10.6055 13.1665 10.703 13.142 10.7755 13.128C10.8467 13.1123 10.916 13.0894 10.9825 13.0595C11.1215 13.0005 11.275 12.9195 11.4275 12.8345C11.5805 12.7505 11.732 12.664 11.8515 12.6015C11.9115 12.5705 11.9635 12.546 11.999 12.5315C12.0065 12.5265 12.009 12.5265 12.0155 12.5265C12.0705 12.549 12.1245 12.5737 12.1775 12.6005C12.298 12.6615 12.4495 12.7455 12.6035 12.828C12.7575 12.9105 12.912 12.9915 13.052 13.049C13.122 13.0775 13.187 13.1005 13.26 13.114C13.3325 13.128 13.43 13.151 13.551 13.0615C13.672 12.9725 13.68 12.872 13.6885 12.799C13.6957 12.7268 13.6954 12.6541 13.6875 12.582C13.6745 12.432 13.6425 12.26 13.6095 12.089C13.5765 11.9175 13.542 11.748 13.5195 11.615C13.5099 11.5613 13.5024 11.5073 13.497 11.453V11.4375C13.535 11.3917 13.575 11.3477 13.617 11.3055C13.712 11.2105 13.841 11.0915 13.967 10.9705C14.093 10.8505 14.217 10.7295 14.3145 10.6145C14.3635 10.5565 14.406 10.501 14.4415 10.4365C14.4765 10.3715 14.529 10.287 14.4815 10.1445C14.434 10.002 14.3405 9.9635 14.2735 9.9325C14.2066 9.90328 14.1369 9.88099 14.0655 9.866C13.9027 9.83191 13.7384 9.80588 13.573 9.788C13.4 9.7665 13.226 9.747 13.093 9.728C13.0388 9.72015 12.9849 9.71014 12.9315 9.698C12.925 9.698 12.9235 9.693 12.918 9.693C12.914 9.688 12.9115 9.686 12.907 9.6795C12.8792 9.63303 12.8531 9.58549 12.829 9.537C12.7675 9.417 12.693 9.2595 12.617 9.1025C12.547 8.95209 12.4696 8.80524 12.385 8.6625C12.3479 8.59951 12.3043 8.54053 12.255 8.4865C12.204 8.4325 12.1385 8.3565 11.9885 8.3575V8.3555ZM11.992 8.9855C12.046 9.079 12.105 9.189 12.167 9.3175C12.241 9.4695 12.3145 9.629 12.383 9.7625C12.417 9.8295 12.4495 9.8895 12.483 9.9435C12.5175 9.9975 12.5395 10.0435 12.621 10.1015C12.703 10.16 12.7535 10.166 12.8155 10.1805C12.8775 10.1955 12.9455 10.207 13.0195 10.218C13.1685 10.24 13.3435 10.2595 13.5115 10.2805C13.653 10.298 13.776 10.318 13.8815 10.339C13.8095 10.419 13.723 10.509 13.62 10.6075C13.498 10.7245 13.369 10.844 13.2625 10.95C13.2095 11.0035 13.1625 11.0525 13.1225 11.1015C13.081 11.1505 13.043 11.1855 13.0125 11.2815C12.9825 11.3765 12.9925 11.4265 12.998 11.49C13.003 11.5535 13.013 11.6215 13.0255 11.695C13.0505 11.8435 13.087 12.015 13.119 12.1815C13.146 12.3215 13.165 12.4445 13.1775 12.5515C13.0634 12.5002 12.9512 12.4448 12.841 12.3855C12.691 12.3055 12.5375 12.2205 12.4035 12.1525C12.3423 12.1208 12.2797 12.0918 12.216 12.0655C12.1565 12.0415 12.111 12.0165 12.011 12.0175C11.91 12.0175 11.866 12.044 11.8065 12.0685C11.748 12.093 11.6865 12.1235 11.62 12.1585C11.487 12.2275 11.334 12.3145 11.1855 12.3965C11.0605 12.4655 10.9485 12.5215 10.8505 12.5665C10.862 12.459 10.8805 12.3355 10.9055 12.1955C10.9355 12.029 10.969 11.8565 10.992 11.708C11.004 11.634 11.012 11.5665 11.017 11.503C11.021 11.4395 11.0305 11.389 10.999 11.294C10.9675 11.199 10.93 11.1645 10.889 11.116C10.8432 11.0639 10.7952 11.0139 10.745 10.966C10.6375 10.861 10.5075 10.7435 10.384 10.628C10.2925 10.5427 10.2041 10.4541 10.119 10.3625C10.225 10.3405 10.348 10.3175 10.489 10.299C10.657 10.276 10.831 10.2555 10.9795 10.2315C11.0535 10.2195 11.121 10.2065 11.1825 10.1915C11.2445 10.176 11.296 10.17 11.377 10.1105C11.458 10.0505 11.4785 10.0045 11.512 9.9505C11.545 9.8955 11.577 9.835 11.6105 9.7675C11.677 9.633 11.7495 9.4735 11.8215 9.3205C11.8815 9.1915 11.9395 9.0795 11.992 8.9855ZM8.852 15.8955C8.875 15.9365 8.8985 15.9785 8.9805 16.0265C9.074 16.081 9.1265 16.0735 9.1795 16.075C9.233 16.075 9.285 16.07 9.341 16.0665C9.4525 16.0545 9.577 16.0325 9.7 16.0105C9.8235 15.989 9.9445 15.9675 10.036 15.9555C10.074 15.9505 10.1015 15.9475 10.125 15.9455C10.142 15.962 10.162 15.982 10.1885 16.0105C10.251 16.08 10.3305 16.1755 10.411 16.2715L10.451 16.3175L9.457 18.04L9.2315 17.198C9.21289 17.1293 9.16778 17.0709 9.1061 17.0354C9.04442 17 8.97119 16.9905 8.9025 17.009L8.0675 17.2325L8.8515 15.8955H8.852ZM15.1465 15.9005L15.9295 17.2355L15.0945 17.0115C15.0257 16.9933 14.9526 17.0032 14.8911 17.0389C14.8296 17.0746 14.7848 17.1333 14.7665 17.202L14.541 18.042L13.547 16.3215C13.561 16.3045 13.575 16.2905 13.589 16.2735C13.669 16.177 13.749 16.082 13.8115 16.0125C13.8319 15.9901 13.8531 15.9684 13.875 15.9475C13.8985 15.9475 13.926 15.9535 13.964 15.9575C14.0555 15.9695 14.1765 15.991 14.3 16.0125C14.423 16.034 14.5475 16.056 14.659 16.0685C14.715 16.0745 14.767 16.0785 14.8205 16.077C14.8735 16.077 14.926 16.083 15.0195 16.0285C15.074 16 15.1184 15.9553 15.1465 15.9005Z" fill="black" stroke="black" stroke-width="6" mask="url(#path-1-inside-1_898_29856)"/>
</g>
<defs>
<clipPath id="clip0_898_29856">
<rect width="24" height="24" fill="white"/>
</clipPath>
</defs>
</svg>
