<svg width="24" height="24" viewBox="0 0 24 24" fill="none" xmlns="http://www.w3.org/2000/svg">
<path d="M15.706 16.6718C15.9943 17.0407 16.3437 17.3576 16.7389 17.6087C17.2067 17.905 17.7286 18.1055 18.2745 18.1985C19.0733 18.3312 19.8935 18.226 20.6331 17.8961C21.3726 17.5662 21.9989 17.0262 22.4339 16.3431C22.7254 15.8863 22.9239 15.3764 23.018 14.8427C23.1122 14.309 23.1002 13.762 22.9826 13.2329C22.8651 12.7039 22.6443 12.2032 22.333 11.7596C22.0217 11.316 21.6259 10.9382 21.1683 10.6478C19.2474 9.42561 16.6992 9.99192 15.4734 11.9133C15.0151 12.6331 14.7914 13.4773 14.833 14.3295C14.8747 15.1818 15.1797 16.0001 15.706 16.6718Z" stroke="black" stroke-miterlimit="10" stroke-linecap="round" stroke-linejoin="round"/>
<path d="M14.3489 21.2877C14.6828 21.5008 15.0876 21.5726 15.4743 21.4873C15.8611 21.4021 16.1982 21.1668 16.4115 20.8331L18.272 18.1981C17.7261 18.1049 17.2042 17.9043 16.7365 17.6078C16.3412 17.3567 15.9919 17.0399 15.7035 16.6709L13.8883 19.2301C13.7834 19.3954 13.7121 19.5798 13.6784 19.7727C13.6448 19.9656 13.6495 20.1633 13.6922 20.3543C13.735 20.5454 13.815 20.7262 13.9277 20.8864C14.0404 21.0465 14.1835 21.1829 14.3489 21.2877Z" stroke="black" stroke-miterlimit="10" stroke-linecap="round" stroke-linejoin="round"/>
<path d="M15.7059 16.668L15.7031 16.6721" stroke="black" stroke-miterlimit="10" stroke-linecap="round" stroke-linejoin="round"/>
<path d="M21.0773 10.5933V3.1099C21.0773 2.76144 20.7943 2.47852 20.4454 2.47852H1.55418C1.20526 2.47852 0.921875 2.76144 0.921875 3.1099V14.1808C0.921875 14.5297 1.2048 14.8127 1.55372 14.8127H14.8802" stroke="black" stroke-miterlimit="10" stroke-linecap="round" stroke-linejoin="round"/>
<path d="M17.0938 2.47754C17.0939 3.53359 17.5135 4.54635 18.2603 5.29305C19.007 6.03975 20.0199 6.45923 21.0759 6.45923" stroke="black" stroke-miterlimit="10" stroke-linecap="round" stroke-linejoin="round"/>
<path d="M0.921875 6.45923C1.97793 6.45923 2.99073 6.03975 3.73752 5.29305C4.48431 4.54635 4.90391 3.53359 4.90403 2.47754" stroke="black" stroke-miterlimit="10" stroke-linecap="round" stroke-linejoin="round"/>
<path d="M4.90403 14.8103C4.90403 13.7541 4.48448 12.7413 3.73768 11.9945C2.99088 11.2477 1.97801 10.8281 0.921875 10.8281" stroke="black" stroke-miterlimit="10" stroke-linecap="round" stroke-linejoin="round"/>
<path d="M10.9993 12.6353C13.2037 12.6353 14.9908 10.8483 14.9908 8.64382C14.9908 6.43939 13.2037 4.65234 10.9993 4.65234C8.79486 4.65234 7.00781 6.43939 7.00781 8.64382C7.00781 10.8483 8.79486 12.6353 10.9993 12.6353Z" stroke="black" stroke-miterlimit="10" stroke-linecap="round" stroke-linejoin="round"/>
<path d="M12.0967 7.54863C12.0965 7.40507 12.068 7.26295 12.0129 7.13042C11.9577 6.99788 11.877 6.87752 11.7752 6.77622C11.6735 6.67492 11.5528 6.59468 11.42 6.54008C11.2873 6.48547 11.145 6.45759 11.0015 6.45801C10.3969 6.45801 9.90625 6.94447 9.90625 7.54863C9.90625 8.15278 10.3969 8.64386 11.0015 8.64386" stroke="black" stroke-miterlimit="10" stroke-linecap="round" stroke-linejoin="round"/>
<path d="M9.90625 9.73879C9.90625 10.3388 10.3969 10.8299 11.0015 10.8299C11.2913 10.83 11.5693 10.7152 11.7746 10.5107C11.9799 10.3062 12.0957 10.0286 12.0967 9.73879C12.0966 9.44835 11.9812 9.16985 11.7758 8.96448C11.5704 8.75911 11.2919 8.64368 11.0015 8.64355" stroke="black" stroke-miterlimit="10" stroke-linecap="round" stroke-linejoin="round"/>
<path d="M11 10.8301V11.3844" stroke="black" stroke-miterlimit="10" stroke-linecap="round" stroke-linejoin="round"/>
<path d="M11 5.90332V6.45763" stroke="black" stroke-miterlimit="10" stroke-linecap="round" stroke-linejoin="round"/>
</svg>
