<svg width="24" height="24" viewBox="0 0 24 24" fill="none" xmlns="http://www.w3.org/2000/svg">
<path d="M14.7682 5.87C14.9978 6.00037 15.2697 6.03464 15.5245 5.96532C15.7792 5.896 15.9963 5.72873 16.1282 5.5C16.2373 5.30736 16.4074 5.15639 16.6116 5.07078C16.8158 4.98517 17.0426 4.96975 17.2565 5.02694C17.4704 5.08414 17.6593 5.21071 17.7935 5.38681C17.9278 5.56291 17.9997 5.77858 17.9982 6C17.9982 6.26522 17.8928 6.51957 17.7053 6.70711C17.5178 6.89464 17.2634 7 16.9982 7C16.733 7 16.4786 7.10536 16.2911 7.29289C16.1035 7.48043 15.9982 7.73478 15.9982 8C15.9982 8.26522 16.1035 8.51957 16.2911 8.70711C16.4786 8.89464 16.733 9 16.9982 9C17.5247 8.99966 18.0419 8.86075 18.4977 8.59723C18.9536 8.33371 19.332 7.95486 19.5951 7.49875C19.8581 7.04264 19.9965 6.52533 19.9963 5.9988C19.9961 5.47227 19.8573 4.95507 19.5939 4.49917C19.3304 4.04326 18.9517 3.66472 18.4956 3.40156C18.0396 3.13841 17.5223 2.99992 16.9958 3C16.4693 3.00008 15.952 3.13874 15.4961 3.40204C15.0401 3.66534 14.6615 4.04401 14.3982 4.5C14.3321 4.61413 14.2892 4.74022 14.272 4.871C14.2548 5.00178 14.2637 5.13466 14.2981 5.262C14.3325 5.38934 14.3917 5.50862 14.4724 5.61297C14.5531 5.71732 14.6536 5.80467 14.7682 5.87ZM19.0682 13C18.8057 12.9659 18.5404 13.0373 18.3305 13.1985C18.1205 13.3597 17.983 13.5976 17.9482 13.86C17.7383 15.5552 16.9159 17.1151 15.6358 18.246C14.3557 19.3769 12.7063 20.0007 10.9982 20H5.40819L6.05819 19.35C6.24444 19.1626 6.34898 18.9092 6.34898 18.645C6.34898 18.3808 6.24444 18.1274 6.05819 17.94C5.08314 16.9611 4.41957 15.7156 4.15108 14.3603C3.88259 13.005 4.02117 11.6005 4.54939 10.3238C5.0776 9.04714 5.97181 7.95532 7.11938 7.18589C8.26695 6.41646 9.61655 6.00384 10.9982 6C11.2634 6 11.5178 5.89464 11.7053 5.70711C11.8928 5.51957 11.9982 5.26522 11.9982 5C11.9982 4.73478 11.8928 4.48043 11.7053 4.29289C11.5178 4.10536 11.2634 4 10.9982 4C9.30742 4.00705 7.65283 4.49024 6.22398 5.39419C4.79513 6.29815 3.64982 7.58632 2.91925 9.11112C2.18868 10.6359 1.90241 12.3357 2.09323 14.0157C2.28405 15.6956 2.94425 17.2879 3.99819 18.61L2.28819 20.29C2.14943 20.4306 2.05543 20.6092 2.01806 20.8032C1.98068 20.9972 2.00161 21.1979 2.07819 21.38C2.15321 21.5626 2.2806 21.7189 2.44432 21.8293C2.60804 21.9396 2.80076 21.999 2.99819 22H10.9982C13.1896 22.0003 15.3059 21.201 16.95 19.7521C18.5941 18.3031 19.653 16.3041 19.9282 14.13C19.9465 13.9993 19.9387 13.8662 19.9053 13.7385C19.8719 13.6107 19.8135 13.4909 19.7336 13.3858C19.6536 13.2808 19.5537 13.1926 19.4395 13.1264C19.3253 13.0602 19.1991 13.0172 19.0682 13ZM17.3782 10.07C17.1961 9.98945 16.9942 9.96508 16.7982 10L16.6182 10.06L16.4382 10.15L16.2882 10.28C16.1982 10.3721 16.1269 10.4808 16.0782 10.6C16.0191 10.7247 15.9916 10.8621 15.9982 11C15.9953 11.1334 16.0191 11.266 16.0682 11.39C16.1199 11.51 16.1946 11.6187 16.2882 11.71C16.3816 11.8027 16.4924 11.876 16.6143 11.9258C16.7361 11.9755 16.8666 12.0008 16.9982 12C17.2634 12 17.5178 11.8946 17.7053 11.7071C17.8928 11.5196 17.9982 11.2652 17.9982 11C18.0016 10.8688 17.9742 10.7387 17.9182 10.62C17.8107 10.3797 17.6185 10.1875 17.3782 10.08V10.07Z" fill="black"/>
</svg>
