<svg width="30" height="30" viewBox="0 0 30 30" fill="none" xmlns="http://www.w3.org/2000/svg">
<path d="M17.7878 11.315C17.7872 11.3967 17.7842 11.4783 17.7786 11.5598C17.7758 11.6001 17.7716 11.6403 17.7673 11.6805C17.7528 11.8167 17.7849 11.5682 17.7638 11.7029C17.7373 11.8718 17.6943 12.0378 17.6413 12.2002C17.6292 12.2372 17.6158 12.2738 17.6024 12.3104C17.5944 12.3321 17.5443 12.4547 17.5962 12.3319C17.5661 12.4031 17.5321 12.4726 17.497 12.5413C17.4214 12.6894 17.3317 12.8301 17.2342 12.9647C17.1577 13.0704 17.3025 12.8803 17.2211 12.9821C17.1973 13.012 17.1724 13.041 17.1475 13.07C17.0978 13.128 17.0451 13.1832 16.9914 13.2375C16.9377 13.2918 16.8812 13.3433 16.8239 13.3937C16.7952 13.4189 16.7656 13.4431 16.736 13.4673C16.6918 13.5023 16.6963 13.4991 16.7494 13.4576C16.729 13.4729 16.7084 13.488 16.6877 13.5028C16.5633 13.5929 16.431 13.6717 16.2952 13.7432C16.2268 13.7791 16.1566 13.8114 16.0858 13.8423C16.2077 13.789 16.0861 13.8402 16.0643 13.8485C16.0157 13.867 15.9663 13.8834 15.9169 13.8995C15.7668 13.9485 15.6124 13.9835 15.4568 14.0099C15.3224 14.0326 15.5704 13.9973 15.4344 14.0134C15.3943 14.0182 15.354 14.0215 15.3138 14.0247C15.2187 14.0324 15.1232 14.0342 15.0278 14.0336C14.9463 14.0331 14.865 14.028 14.7837 14.0214C14.7436 14.0179 14.7035 14.0137 14.6636 14.0087C14.8001 14.0249 14.6658 14.0073 14.6417 14.0032C14.4735 13.9747 14.3083 13.9297 14.1469 13.8749C14.11 13.8623 14.0736 13.8485 14.0373 13.8346C13.9135 13.7875 14.1376 13.8797 14.0165 13.8268C13.9458 13.7958 13.8768 13.7611 13.8085 13.7252C13.6614 13.6478 13.5219 13.5565 13.3885 13.4575C13.4937 13.5357 13.3902 13.4577 13.3722 13.443C13.3428 13.4187 13.3138 13.3938 13.2853 13.3685C13.2279 13.3181 13.1732 13.2647 13.1196 13.2104C13.0659 13.1561 13.0151 13.0989 12.9654 13.041C12.9405 13.012 12.9167 12.9821 12.8928 12.9523C12.9781 13.0591 12.874 12.9236 12.8591 12.9025C12.7704 12.777 12.6931 12.6437 12.6232 12.507C12.6057 12.4726 12.5894 12.4376 12.5731 12.4026C12.5632 12.3814 12.5132 12.2598 12.5635 12.3828C12.5291 12.2986 12.4998 12.2124 12.4727 12.1257C12.4255 11.9747 12.3924 11.8196 12.3679 11.6634C12.3892 11.7994 12.3688 11.6647 12.3663 11.6404C12.3622 11.6001 12.3589 11.5598 12.3564 11.5194C12.3499 11.4241 12.3493 11.3284 12.3511 11.2329C12.3526 11.1516 12.3587 11.0705 12.3663 10.9896C12.3685 10.9656 12.3876 10.8301 12.3679 10.9666C12.3735 10.9271 12.3807 10.8879 12.3878 10.8487C12.4184 10.6811 12.4653 10.5168 12.5221 10.3562C12.535 10.3196 12.5493 10.2834 12.5636 10.2473C12.5149 10.3706 12.5634 10.249 12.5731 10.2274C12.6048 10.1571 12.6404 10.0886 12.6771 10.0208C12.7136 9.95326 12.7538 9.88772 12.795 9.82298C12.8156 9.79066 12.8374 9.75911 12.8591 9.72759C12.8736 9.70646 12.977 9.56985 12.8929 9.67778C12.9868 9.55725 13.0912 9.44522 13.201 9.3392C13.256 9.28614 13.3137 9.23604 13.3722 9.18703C13.3899 9.17226 13.493 9.09305 13.3885 9.1725C13.4291 9.14162 13.4709 9.11241 13.513 9.08347C13.6396 8.99625 13.7739 8.92049 13.9115 8.85222C13.9462 8.83528 13.9813 8.81896 14.0166 8.80327C14.137 8.7489 13.9142 8.84402 14.0373 8.79542C14.122 8.76196 14.2086 8.73372 14.2958 8.70762C14.3713 8.68503 14.448 8.66663 14.5249 8.64964C14.5636 8.64108 14.6027 8.63396 14.6418 8.62684C14.6655 8.62251 14.8001 8.60344 14.6636 8.62137C14.8386 8.59837 15.0157 8.59298 15.1919 8.59849C15.273 8.601 15.3538 8.60806 15.4344 8.61662C15.5706 8.63109 15.3221 8.59904 15.4568 8.62016C15.4961 8.62632 15.5352 8.63393 15.5742 8.64155C15.7412 8.67413 15.9047 8.723 16.0643 8.78156C16.086 8.78953 16.2087 8.83969 16.0858 8.78774C16.1215 8.8028 16.1565 8.81915 16.1916 8.8355C16.2614 8.86805 16.3294 8.90437 16.3968 8.94184C16.4638 8.9792 16.5289 9.0201 16.5931 9.06211C16.6251 9.08308 16.6564 9.10517 16.6877 9.12726C16.7064 9.14051 16.8098 9.21975 16.7062 9.13898C16.8267 9.23291 16.9387 9.33732 17.0448 9.44716C17.0978 9.50209 17.1479 9.5598 17.197 9.61834C17.2117 9.63597 17.2909 9.7391 17.2115 9.6346C17.2346 9.66507 17.2567 9.69633 17.2788 9.72759C17.3674 9.85312 17.4447 9.98631 17.5146 10.1231C17.5321 10.1575 17.5485 10.1924 17.5648 10.2274C17.5747 10.2487 17.6246 10.3703 17.5743 10.2473C17.6037 10.3194 17.6293 10.3931 17.6534 10.4671C17.7024 10.6172 17.7374 10.7716 17.7638 10.9272C17.7865 11.0616 17.7511 10.8136 17.7673 10.9496C17.7721 10.9898 17.7753 11.03 17.7786 11.0702C17.7852 11.1516 17.7872 11.2334 17.7878 11.315C17.7895 11.5945 18.0196 11.8277 18.3005 11.8277C18.5786 11.8277 18.8149 11.5945 18.8131 11.315C18.8042 9.87697 17.9582 8.51376 16.6389 7.91783C15.2596 7.29483 13.6555 7.5513 12.5318 8.56204C11.4511 9.53426 11.0549 11.1396 11.5203 12.5096C11.7458 13.1735 12.1578 13.778 12.7066 14.2161C13.3013 14.6909 13.9881 14.9628 14.7435 15.043C15.7856 15.1538 16.8352 14.7614 17.606 14.068C18.3773 13.3742 18.8067 12.3457 18.8131 11.315C18.8149 11.0355 18.5786 10.8023 18.3004 10.8023C18.0196 10.8023 17.7895 11.0356 17.7878 11.315Z" fill="black"/>
<path d="M18.7681 14.9304C18.8399 14.9761 18.9104 15.0238 18.9796 15.0734C18.9932 15.0831 19.1058 15.1696 19.0113 15.0957C19.0447 15.1219 19.0773 15.1491 19.1099 15.1763C19.251 15.2941 19.3819 15.4237 19.5054 15.5597C19.5625 15.6226 19.6165 15.6881 19.6694 15.7544C19.5947 15.6608 19.6817 15.7725 19.6917 15.7862C19.7166 15.8206 19.741 15.8555 19.7648 15.8907C19.8692 16.0436 19.9602 16.2051 20.0423 16.3709C20.0611 16.4094 20.0793 16.4483 20.0969 16.4874C20.1564 16.6182 20.0584 16.39 20.1122 16.5235C20.1446 16.6038 20.173 16.6855 20.2001 16.7677C20.2594 16.9481 20.3027 17.1335 20.3355 17.3204C20.3385 17.3379 20.3592 17.4845 20.343 17.3599C20.3488 17.4043 20.353 17.4488 20.3573 17.4934C20.3659 17.5834 20.37 17.6737 20.3725 17.764C20.3738 17.8107 20.3736 17.8574 20.3736 17.904V20.5179C20.3736 20.5511 20.3725 20.5675 20.3709 20.6005C20.3642 20.7369 20.3923 20.4913 20.3684 20.6241C20.3614 20.6631 20.3507 20.7014 20.34 20.7395C20.3336 20.7621 20.2862 20.8854 20.3376 20.7638C20.3075 20.8351 20.2674 20.9018 20.2247 20.9661C20.153 21.0741 20.2946 20.8852 20.2103 20.9834C20.177 21.0223 20.1396 21.0574 20.1019 21.0919C20.0063 21.1791 20.1903 21.0313 20.0846 21.1063C20.0531 21.1286 20.0196 21.148 19.9863 21.1673C19.9527 21.1867 19.9174 21.203 19.8822 21.2192C20.0008 21.1646 19.8817 21.214 19.858 21.2215C19.8201 21.2334 19.7813 21.2417 19.7426 21.25C19.6106 21.2781 19.8551 21.2414 19.719 21.2524C19.6908 21.2547 19.6621 21.2551 19.6338 21.2551H10.4966C10.4604 21.2551 10.4504 21.2542 10.4143 21.2524C10.2779 21.2458 10.5235 21.2738 10.3908 21.25C10.3517 21.243 10.3135 21.2322 10.2754 21.2215C10.2503 21.214 10.2255 21.2058 10.2009 21.1967C10.2628 21.2246 10.2678 21.2267 10.2158 21.2029C10.1456 21.1706 10.0803 21.1286 10.0174 21.084C10.1219 21.1581 10.0217 21.0829 10.0031 21.066C9.97478 21.0401 9.94885 21.0117 9.92301 20.9834C9.83576 20.8878 9.98359 21.0718 9.90859 20.9661C9.88627 20.9346 9.8669 20.9011 9.8476 20.8678C9.82814 20.8342 9.81191 20.7989 9.79571 20.7637C9.85234 20.8867 9.79035 20.7288 9.78268 20.7015C9.77192 20.6631 9.76486 20.6238 9.75783 20.5847C9.78162 20.7171 9.76176 20.586 9.76047 20.5596C9.75965 20.5425 9.75979 20.5251 9.75979 20.508V17.9947C9.75979 17.8571 9.76047 17.72 9.76899 17.5826C9.77178 17.5377 9.77608 17.4929 9.78039 17.4481C9.78206 17.4307 9.80175 17.2826 9.78411 17.4071C9.7965 17.3195 9.81332 17.2325 9.83154 17.1459C9.87054 16.9609 9.92582 16.7795 9.99086 16.6021C10.0057 16.5615 10.0219 16.5214 10.0381 16.4814C9.9927 16.5937 10.0483 16.4615 10.0553 16.446C10.0909 16.3679 10.1303 16.2916 10.1709 16.216C10.2583 16.053 10.3597 15.8979 10.4689 15.7488C10.5529 15.6341 10.4042 15.8289 10.4929 15.718C10.5194 15.6848 10.547 15.6525 10.5746 15.6202C10.6298 15.5555 10.688 15.4936 10.7471 15.4327C10.8063 15.3717 10.8683 15.3136 10.9312 15.2565C10.9628 15.2281 10.9948 15.2003 11.0274 15.1729C11.0436 15.1591 11.1864 15.0468 11.0898 15.1205C11.1688 15.0602 11.2509 15.0042 11.3342 14.95C11.568 14.7978 11.6646 14.4984 11.5182 14.2485C11.3821 14.0163 11.0511 13.9119 10.8167 14.0646C9.53415 14.8997 8.73438 16.3248 8.73438 17.8619V20.1293C8.73438 20.5584 8.74483 20.9524 8.94382 21.3513C9.23181 21.9288 9.87821 22.2805 10.5113 22.2805H19.6308C20.3756 22.2805 21.0243 21.8104 21.2899 21.123C21.4234 20.7776 21.399 20.4035 21.399 20.0406V17.8553C21.399 17.0614 21.1834 16.2761 20.7863 15.5895C20.4229 14.961 19.8959 14.4343 19.2857 14.045C19.0499 13.8945 18.7213 13.995 18.5843 14.2289C18.4388 14.4771 18.533 14.7804 18.7681 14.9304ZM25.8451 14.1659C25.8444 14.2469 25.8398 14.3278 25.8313 14.4084C25.8456 14.2723 25.83 14.4045 25.8255 14.4295C25.8184 14.4682 25.8092 14.5065 25.7999 14.5448C25.7816 14.6206 25.7569 14.6947 25.7303 14.7679C25.6852 14.8917 25.7763 14.6683 25.7225 14.788C25.7014 14.8347 25.6774 14.88 25.653 14.9249C25.6166 14.9921 25.5748 15.0562 25.5313 15.1191C25.4575 15.2258 25.6005 15.0355 25.5192 15.1365C25.4954 15.1662 25.47 15.1945 25.4446 15.2228C25.3938 15.2794 25.3384 15.3318 25.2819 15.3826C25.2535 15.408 25.2239 15.4318 25.1942 15.4557C25.3006 15.3701 25.1654 15.4721 25.1434 15.4868C25.0796 15.5292 25.0125 15.5663 24.9446 15.6015C24.9104 15.6192 24.8753 15.6351 24.8402 15.6509C24.9614 15.5963 24.8416 15.6478 24.8189 15.6561C24.7454 15.6829 24.6699 15.7034 24.594 15.7217C24.5556 15.731 24.5167 15.7381 24.4779 15.7452C24.4196 15.7544 24.4256 15.7539 24.4958 15.7439C24.4692 15.7469 24.4425 15.7495 24.4158 15.7515C24.3346 15.7585 24.2529 15.7585 24.1715 15.7562C24.1311 15.755 24.0908 15.7515 24.0505 15.7481C23.9146 15.7364 24.1622 15.767 24.0285 15.7452C23.9509 15.7325 23.8744 15.7133 23.7987 15.692C23.7612 15.6814 23.7243 15.6688 23.6875 15.6561C23.6632 15.6475 23.639 15.6385 23.615 15.6289C23.6778 15.6562 23.6832 15.6583 23.631 15.6351C23.5611 15.6035 23.4938 15.5663 23.4278 15.5274C23.3949 15.5079 23.3631 15.4868 23.3313 15.4656C23.3119 15.4528 23.2081 15.375 23.3121 15.4557C23.1818 15.3546 23.0665 15.2352 22.9633 15.1069C23.0455 15.209 22.9669 15.1072 22.9534 15.0877C22.9316 15.0564 22.9116 15.0238 22.8917 14.9913C22.8515 14.9259 22.8167 14.8573 22.784 14.788C22.7279 14.6693 22.8235 14.8909 22.7761 14.768C22.7621 14.7317 22.7502 14.6947 22.7383 14.6577C22.7101 14.5704 22.6902 14.4807 22.6738 14.3905C22.6495 14.2573 22.6852 14.5042 22.6709 14.3686C22.6667 14.3283 22.6647 14.2879 22.6628 14.2476C22.6589 14.1661 22.662 14.0846 22.6674 14.0033C22.6691 13.9788 22.687 13.8438 22.6674 13.9805C22.673 13.9412 22.6809 13.9024 22.6887 13.8636C22.7068 13.7741 22.7333 13.6865 22.7629 13.6002C22.7705 13.5779 22.8207 13.4563 22.7681 13.5789C22.7833 13.5436 22.8004 13.509 22.8174 13.4746C22.8514 13.406 22.891 13.3403 22.9323 13.2758C22.9528 13.2437 22.9751 13.2127 22.9974 13.1818C22.9212 13.2877 22.9961 13.1847 23.0116 13.1661C23.0684 13.0979 23.1313 13.0351 23.1963 12.9746C23.2241 12.9487 23.2533 12.9243 23.2825 12.9C23.3265 12.8647 23.322 12.8681 23.269 12.9101C23.2895 12.8951 23.3103 12.8804 23.3313 12.8662C23.4048 12.8154 23.4826 12.7713 23.5618 12.7302C23.596 12.7125 23.6311 12.6967 23.6662 12.6809C23.54 12.7377 23.6987 12.6718 23.7243 12.663C23.8234 12.629 23.9256 12.6054 24.0285 12.5866C24.1618 12.5622 23.9148 12.598 24.0505 12.5837C24.1042 12.578 24.1583 12.576 24.2123 12.5744C24.307 12.5717 24.4017 12.578 24.4958 12.5879C24.3597 12.5736 24.4919 12.5891 24.5169 12.5937C24.5685 12.6031 24.6194 12.6159 24.6701 12.6292C24.7204 12.6424 24.7697 12.6588 24.8189 12.6756C24.8432 12.6842 24.8674 12.6933 24.8914 12.7028C24.8286 12.6755 24.8232 12.6735 24.8753 12.6967C24.9569 12.7335 25.035 12.7776 25.1112 12.8244C25.1437 12.8444 25.1751 12.8662 25.2065 12.8879C25.252 12.9213 25.2479 12.9174 25.1942 12.8761C25.2142 12.8918 25.2338 12.9079 25.2531 12.9243C25.3213 12.9812 25.3841 13.0441 25.4446 13.109C25.4791 13.1462 25.5113 13.1854 25.5431 13.225C25.4575 13.1185 25.5595 13.2538 25.5742 13.2758C25.6237 13.3503 25.6664 13.429 25.706 13.509C25.7167 13.5305 25.7665 13.6509 25.7164 13.5277C25.7359 13.5757 25.7522 13.6248 25.7681 13.6741C25.7963 13.7614 25.8162 13.8511 25.8326 13.9413C25.8418 13.9995 25.8413 13.9936 25.8313 13.9234C25.8344 13.95 25.8369 13.9767 25.839 14.0034C25.8436 14.0574 25.8446 14.1117 25.8451 14.1659C25.8478 14.4453 26.0763 14.6785 26.3578 14.6785C26.6353 14.6785 26.8732 14.4453 26.8705 14.1659C26.8634 13.419 26.5456 12.6904 25.9782 12.1992C25.3649 11.6683 24.5896 11.4772 23.7952 11.5914C23.0646 11.6963 22.4177 12.1788 22.0263 12.7904C21.6204 13.4246 21.5317 14.2549 21.7615 14.9673C21.9531 15.5611 22.3546 16.058 22.8778 16.3927C23.4259 16.7435 24.0779 16.8313 24.7112 16.7403C25.9551 16.5615 26.8589 15.3893 26.8705 14.1659C26.8732 13.8864 26.6353 13.6532 26.3578 13.6532C26.0763 13.6532 25.8478 13.8864 25.8451 14.1659Z" fill="black"/>
<path d="M26.5764 16.6747C26.612 16.6976 26.6472 16.721 26.682 16.745C26.6964 16.7549 26.8077 16.8407 26.7131 16.7661C26.7792 16.8183 26.8415 16.8752 26.9022 16.9336C26.963 16.9919 27.0194 17.0546 27.0742 17.1185C27.0857 17.1319 27.1707 17.2433 27.0985 17.1471C27.1323 17.1921 27.1635 17.2391 27.1943 17.2862C27.2407 17.3572 27.2818 17.4315 27.321 17.5066C27.3407 17.5443 27.3585 17.583 27.3763 17.6217C27.3254 17.5111 27.3831 17.6405 27.3896 17.6575C27.4204 17.7382 27.4451 17.821 27.4676 17.9042C27.4789 17.9463 27.4882 17.9889 27.4974 18.0314C27.5023 18.054 27.5311 18.2398 27.5147 18.1121C27.5627 18.4839 27.5334 18.8752 27.5334 19.2487V20.1598C27.5334 20.1867 27.5321 20.2136 27.5294 20.2405C27.5397 20.17 27.539 20.1634 27.5276 20.2209C27.5219 20.2463 27.475 20.3646 27.5278 20.244C27.5125 20.279 27.4923 20.3116 27.4723 20.344C27.4058 20.4516 27.5434 20.2659 27.4584 20.359C27.4411 20.378 27.3444 20.4564 27.448 20.3782C27.4176 20.4011 27.3842 20.4197 27.3509 20.4381C27.2394 20.5 27.4532 20.4046 27.3311 20.4446C27.3051 20.4531 27.1784 20.4734 27.3131 20.4568C27.2886 20.4598 27.2559 20.4608 27.2314 20.4608H22.6713C22.3918 20.4608 22.1586 20.694 22.1586 20.9734C22.1586 21.2529 22.3918 21.4861 22.6713 21.4861H26.9715C27.3328 21.4861 27.6908 21.471 27.9959 21.2408C28.3413 20.9801 28.5588 20.5975 28.5588 20.1572V18.5114C28.5588 17.8663 28.3972 17.2364 28.033 16.6983C27.7847 16.3317 27.4662 16.0284 27.094 15.7895C26.8586 15.6383 26.5293 15.74 26.3926 15.9734C26.2468 16.222 26.3417 16.5241 26.5764 16.6747ZM7.47451 14.1659C7.47377 14.2469 7.46915 14.3278 7.46068 14.4084C7.475 14.2723 7.45945 14.4045 7.45488 14.4295C7.44782 14.4682 7.43853 14.5065 7.4293 14.5448C7.41099 14.6206 7.38632 14.6947 7.35966 14.7679C7.31457 14.8917 7.40575 14.6683 7.35184 14.788C7.3308 14.8347 7.30681 14.88 7.28243 14.9249C7.24602 14.9921 7.20418 15.0562 7.16071 15.1191C7.08685 15.2258 7.22991 15.0355 7.14864 15.1365C7.12479 15.1662 7.09936 15.1945 7.07396 15.2228C7.02316 15.2794 6.96785 15.3318 6.91127 15.3826C6.88294 15.408 6.85329 15.4318 6.82365 15.4557C6.93005 15.3701 6.79482 15.4721 6.77273 15.4868C6.70898 15.5292 6.64189 15.5663 6.57395 15.6015C6.53979 15.6192 6.50469 15.6351 6.46962 15.6509C6.59074 15.5963 6.471 15.6478 6.44827 15.6561C6.37485 15.6829 6.29932 15.7034 6.22341 15.7217C6.185 15.731 6.14613 15.7381 6.10728 15.7452C6.04904 15.7544 6.05501 15.7539 6.12521 15.7439C6.09858 15.7469 6.07189 15.7495 6.04517 15.7515C5.96396 15.7585 5.88231 15.7585 5.80095 15.7562C5.76052 15.755 5.72021 15.7515 5.67993 15.7481C5.54399 15.7364 5.79163 15.767 5.65795 15.7452C5.58026 15.7325 5.50379 15.7133 5.42809 15.692C5.39062 15.6814 5.35376 15.6688 5.31697 15.6561C5.29261 15.6475 5.26841 15.6385 5.2444 15.6289C5.30727 15.6562 5.31266 15.6583 5.26048 15.6351C5.19049 15.6035 5.12326 15.5663 5.05722 15.5274C5.02432 15.5079 4.9925 15.4868 4.96075 15.4656C4.94141 15.4528 4.83752 15.375 4.94159 15.4557C4.81121 15.3546 4.69599 15.2352 4.59275 15.1069C4.67495 15.209 4.59635 15.1072 4.58285 15.0877C4.56111 15.0564 4.5411 15.0238 4.52112 14.9913C4.48092 14.9259 4.44618 14.8573 4.41342 14.788C4.35732 14.6693 4.45297 14.8909 4.4056 14.768C4.39162 14.7317 4.3797 14.6947 4.36778 14.6577C4.33962 14.5704 4.31973 14.4807 4.30327 14.3905C4.27892 14.2573 4.31466 14.5042 4.30036 14.3686C4.29615 14.3283 4.29421 14.2879 4.29231 14.2476C4.28841 14.1661 4.29152 14.0846 4.29694 14.0033C4.29858 13.9788 4.31651 13.8438 4.29688 13.9805C4.3025 13.9412 4.31035 13.9024 4.31824 13.8636C4.33631 13.7741 4.36277 13.6865 4.39236 13.6002C4.40003 13.5779 4.45016 13.4563 4.3976 13.5789C4.41275 13.5436 4.42986 13.509 4.44691 13.4746C4.48092 13.406 4.52047 13.3403 4.56169 13.2758C4.58226 13.2437 4.60455 13.2127 4.62682 13.1818C4.55062 13.2877 4.6255 13.1847 4.64103 13.1661C4.69789 13.0979 4.76079 13.0351 4.82572 12.9746C4.85358 12.9487 4.88279 12.9243 4.912 12.9C4.956 12.8647 4.95149 12.8681 4.89849 12.9101C4.91898 12.8951 4.93975 12.8805 4.96077 12.8662C5.03422 12.8154 5.11209 12.7713 5.19131 12.7302C5.22547 12.7125 5.26057 12.6967 5.29564 12.6809C5.16949 12.7377 5.32813 12.6718 5.3537 12.663C5.45276 12.629 5.55506 12.6054 5.65798 12.5866C5.79122 12.5622 5.54428 12.598 5.67995 12.5837C5.73368 12.578 5.78774 12.576 5.8417 12.5744C5.93639 12.5717 6.03111 12.578 6.12524 12.5879C5.98915 12.5736 6.12131 12.5891 6.14627 12.5937C6.19789 12.6031 6.24881 12.6159 6.29955 12.6292C6.34983 12.6424 6.39919 12.6588 6.44832 12.6756C6.47268 12.6842 6.49688 12.6933 6.52089 12.7028C6.45802 12.6755 6.45263 12.6735 6.50481 12.6967C6.58643 12.7335 6.66448 12.7776 6.74062 12.8244C6.77314 12.8444 6.80454 12.8662 6.83592 12.8879C6.88139 12.9213 6.87732 12.9174 6.8237 12.8761C6.84361 12.8918 6.86323 12.9079 6.88256 12.9243C6.95071 12.9812 7.01361 13.0441 7.07402 13.109C7.10859 13.1462 7.14076 13.1854 7.17257 13.225C7.08697 13.1185 7.18895 13.2538 7.20366 13.2758C7.2532 13.3503 7.29585 13.429 7.33549 13.509C7.34616 13.5305 7.3959 13.6509 7.34583 13.5277C7.36534 13.5757 7.38169 13.6248 7.39757 13.6741C7.42573 13.7614 7.44562 13.8511 7.46208 13.9413C7.47122 13.9995 7.47076 13.9936 7.46077 13.9234C7.46381 13.95 7.46636 13.9767 7.46841 14.0034C7.47295 14.0574 7.47398 14.1117 7.47451 14.1659C7.47717 14.4453 7.70572 14.6785 7.9872 14.6785C8.26467 14.6785 8.50256 14.4453 8.4999 14.1659C8.49278 13.419 8.17496 12.6904 7.60757 12.1992C6.99433 11.6683 6.21893 11.4772 5.42457 11.5914C4.69403 11.6963 4.04709 12.1788 3.65572 12.7904C3.24987 13.4246 3.16116 14.2549 3.39096 14.9673C3.5825 15.5611 3.98402 16.058 4.50717 16.3927C5.05532 16.7435 5.70735 16.8313 6.34066 16.7403C7.58452 16.5615 8.48827 15.3893 8.49993 14.1659C8.50259 13.8864 8.2647 13.6532 7.98723 13.6532C7.70569 13.6532 7.47717 13.8864 7.47451 14.1659ZM7.46747 20.4607H2.92602C2.88322 20.4607 2.75768 20.4417 2.88342 20.4634C2.84495 20.4568 2.80775 20.4446 2.77077 20.4325C2.88978 20.4714 2.7817 20.4347 2.75437 20.4196C2.73035 20.4062 2.63645 20.3295 2.73497 20.4112C2.71221 20.3923 2.60686 20.2681 2.68784 20.3753C2.66487 20.3449 2.64632 20.3115 2.62789 20.2782C2.56605 20.1668 2.66144 20.3805 2.62142 20.2584C2.61289 20.2324 2.59265 20.1057 2.60923 20.2404C2.60642 20.2175 2.60528 20.182 2.60528 20.1591V18.4253C2.60528 18.3346 2.6107 18.2444 2.61928 18.1543C2.63337 18.0063 2.60135 18.26 2.62543 18.1143C2.63261 18.0708 2.64202 18.0278 2.65142 17.9847C2.67005 17.8995 2.69516 17.8157 2.72232 17.7329C2.73579 17.6918 2.75135 17.6514 2.76688 17.6111C2.7229 17.7253 2.79251 17.5574 2.80233 17.5371C2.83956 17.4602 2.88251 17.3862 2.92716 17.3133C2.94943 17.2771 2.97345 17.2419 2.99747 17.2067C3.00702 17.1927 3.09269 17.08 3.01883 17.1742C3.13233 17.0294 3.26431 16.9 3.40546 16.7824C3.51412 16.6919 3.32211 16.8426 3.43655 16.7593C3.47094 16.7343 3.50657 16.7109 3.54213 16.6876C3.77539 16.5347 3.87275 16.2365 3.72606 15.9861C3.5903 15.7544 3.2586 15.6489 3.0246 15.8022C2.34741 16.246 1.84983 16.9202 1.66262 17.7121C1.55906 18.1502 1.57983 18.6009 1.57983 19.047V20.1539C1.57983 20.8894 2.19049 21.4861 2.92186 21.4861H7.46739C7.74688 21.4861 7.98008 21.2529 7.98008 20.9734C7.98008 20.6939 7.74694 20.4607 7.46747 20.4607Z" fill="black"/>
</svg>
