<svg width="25" height="25" viewBox="0 0 25 25" fill="none" xmlns="http://www.w3.org/2000/svg">
<path fill-rule="evenodd" clip-rule="evenodd" d="M7.95148 7.8569C7.95148 5.4787 9.90434 3.55078 12.3133 3.55078C14.7223 3.55078 16.6752 5.4787 16.6752 7.8569C16.6752 10.2351 14.7223 12.163 12.3133 12.163C9.90434 12.163 7.95148 10.2351 7.95148 7.8569ZM12.3133 5.07059C10.7546 5.07059 9.49095 6.31806 9.49095 7.8569C9.49095 9.39574 10.7546 10.6432 12.3133 10.6432C13.8721 10.6432 15.1357 9.39574 15.1357 7.8569C15.1357 6.31806 13.8721 5.07059 12.3133 5.07059Z" fill="black"/>
<path fill-rule="evenodd" clip-rule="evenodd" d="M8.20806 15.2026C6.93272 15.2026 5.89885 16.2233 5.89885 17.4824V18.6863C5.89885 18.7047 5.91231 18.7203 5.93063 18.7232C10.1578 19.4046 14.4689 19.4046 18.696 18.7232C18.7143 18.7203 18.7278 18.7047 18.7278 18.6863V17.4824C18.7278 16.2233 17.6939 15.2026 16.4186 15.2026H16.0687C16.0417 15.2026 16.0148 15.2069 15.9891 15.2152L15.1008 15.5015C13.2895 16.0854 11.3371 16.0854 9.52583 15.5015L8.63754 15.2152C8.61183 15.2069 8.58495 15.2026 8.5579 15.2026H8.20806ZM4.35938 17.4824C4.35938 15.3839 6.08249 13.6828 8.20806 13.6828H8.5579C8.74725 13.6828 8.9354 13.7124 9.1154 13.7704L10.0037 14.0568C11.5045 14.5406 13.1222 14.5406 14.623 14.0568L15.5112 13.7704C15.6912 13.7124 15.8794 13.6828 16.0687 13.6828H16.4186C18.5442 13.6828 20.2673 15.3839 20.2673 17.4824V18.6863C20.2673 19.4495 19.707 20.1002 18.9441 20.2232C14.5526 20.931 10.074 20.931 5.68258 20.2232C4.91962 20.1002 4.35938 19.4495 4.35938 18.6863V17.4824Z" fill="black"/>
</svg>
